<?xml version="1.0" encoding="UTF-8" standalone="no" ?>
    <!DOCTYPE svg PUBLIC "-//W3C//DTD SVG 1.1//EN" "http://www.w3.org/Graphics/SVG/1.1/DTD/svg11.dtd">
    <svg version="1.1" xmlns="http://www.w3.org/2000/svg" xmlns:xlink="http://www.w3.org/1999/xlink" width="1366" height="576" xml:space="preserve">
        <desc>JavaScript chart by amCharts 3.21.15</desc>
        <desc>This map was created using Pixel Map Generator by amCharts and is licensed under the Creative Commons Attribution 4.0 International License. You may use this map the way you see fit as long as proper attribution to the name of amCharts is given in the form of link to http://pixelmap.amcharts.com/ To view a copy of this license, visit http://creativecommons.org/licenses/by/4.0/ If you would like to use this map without any attribution, you can acquire a commercial license for the JavaScript Maps - a tool that was used to produce this map. To do so, visit amCharts Online Store: http://www.amcharts.com/online-store/</desc>
        <g>
            <path cs="100,100" d="M0.5,0.5 L1365.5,0.5 L1365.5,575.5 L0.5,575.5 Z" fill="#232c95" stroke="#000000" fill-opacity="1" stroke-width="1" stroke-opacity="1" class="amcharts-bg"></path>
        </g>
        <g>
            <g transform="translate(512.2542885071103,258.79671388409514) scale(0.25)">
                <g transform="translate(0,0) scale(1.7158217459403555)">
                    <path cs="100,100" d="M63.94,118.18L65.21,97.41L41.88,87.94L19.62,112.77L35.12,131.05L63.94,118.18z" transform="translate(-2,-35)" stroke-width="2.331244495218704" fill="#b6cbb6" fill-opacity="1" stroke="#232c95" stroke-opacity="1" class="amcharts-map-area amcharts-map-area-GM-B" role="menuitem" aria-label="Banjul  " countryId="GM-B" cursor="pointer"></path>
                    <path cs="100,100" d="M604.92,135.05L653.44,158.82L697.69,160.49L777.41,137.37L798.06,120.05L792.73,93.26L759.69,66.32L659.14,99.87L628.74,82.36L604.92,135.05z" transform="translate(-2,-35)" stroke-width="2.331244495218704" fill="#b6cbb6" fill-opacity="1" stroke="#232c95" stroke-opacity="1" class="amcharts-map-area amcharts-map-area-GM-U" role="menuitem" aria-label="Upper River  " countryId="GM-U" cursor="pointer"></path>
                    <path cs="100,100" d="M22.07,205.22L43.29,178.23L265.73,180.26L268.1,155.33L181.55,145.71L172.5,152.68L161.34,153.3L153.3,134.56L105.13,147.74L121.58,164.44L110.56,166.3L107.93,151.61L74.97,142.47L63.94,118.18L35.12,131.05L19.62,112.77L1.94,130.85L22.07,205.22z" transform="translate(-2,-35)" stroke-width="2.331244495218704" fill="#b6cbb6" fill-opacity="1" stroke="#232c95" stroke-opacity="1" class="amcharts-map-area amcharts-map-area-GM-W" role="menuitem" aria-label="West Coast  " countryId="GM-W" cursor="pointer"></path>
                    <path cs="100,100" d="M438.33,70.6L406.94,87.94L396.18,103.01L342.47,84.27L321.98,99.2L178.92,106.31L161.47,132.16L168.84,152.45L181.55,145.71L268.1,155.33L272.66,130.51L412.99,119.48L438.33,70.6z" transform="translate(-2,-35)" stroke-width="2.331244495218704" fill="#b6cbb6" fill-opacity="1" stroke="#232c95" stroke-opacity="1" class="amcharts-map-area amcharts-map-area-GM-L" role="menuitem" aria-label="Lower River  " countryId="GM-L" cursor="pointer"></path>
                    <path cs="100,100" d="M406.41,87.94L390.82,76.56L388.95,52.49L354.49,48.35L349.15,64.27L72.97,63.23L74.26,90.82L88.29,109.51L83.44,125.27L118.21,131.3L184.11,99.26L282.52,96.41L339.11,79.19L393.24,98.68L406.41,87.94z" transform="translate(-2,-35)" stroke-width="2.331244495218704" fill="#b6cbb6" fill-opacity="1" stroke="#232c95" stroke-opacity="1" class="amcharts-map-area amcharts-map-area-GM-N" role="menuitem" aria-label="North Bank  " countryId="GM-N" cursor="pointer"></path>
                    <path cs="100,100" d="M466.14,0L415.59,21.03L382.01,12.93L354.49,48.35L388.95,52.49L390.82,76.56L406.41,87.94L406.94,87.94L438.33,70.6L449.9,62.4L557.4,125.28L604.92,135.05L628.74,82.36L607.44,48.55L585.18,42.37L554.93,55.46L518.3,10.46L466.14,0z" transform="translate(-2,-35)" stroke-width="2.331244495218704" fill="#b6cbb6" fill-opacity="1" stroke="#232c95" stroke-opacity="1" class="amcharts-map-area amcharts-map-area-GM-M" role="menuitem" aria-label="Central River  " countryId="GM-M" cursor="pointer"></path>
                </g>
                <g>
                    <g class="amcharts-map-image-container" role="menuitem" aria-label=" " transform="translate(1817.1067036032146,-18.445083768858822) scale(4)">
                        <circle r="0.5" cx="0" cy="0" fill="#5affd9" stroke="#000000" fill-opacity="1" stroke-width="0.01" stroke-opacity="1" transform="translate(0,0) scale(1)" class="amcharts-map-image amcharts-selected-object"></circle>
                    </g>
                    <g class="amcharts-map-image-container" role="menuitem" aria-label=" " transform="translate(1901.130494501914,549.5605470072366) scale(4)">
                        <circle r="0.5" cx="0" cy="0" fill="#5affd9" stroke="#000000" fill-opacity="1" stroke-width="0.01" stroke-opacity="1" transform="translate(0,0) scale(1)" class="amcharts-map-image amcharts-selected-object"></circle>
                    </g>
                    <g class="amcharts-map-image-container" role="menuitem" aria-label=" " transform="translate(1719.0646490401828,-210.3597460522876) scale(4)" cursor="pointer">
                        <circle r="0.5" cx="0" cy="0" fill="#4bd8b5" stroke="#000000" fill-opacity="0.8" stroke-width="0.01" stroke-opacity="1" transform="translate(0,0) scale(1)" class="amcharts-map-image"></circle>
                        <text y="8" fill="#4bd8b5" font-family="Verdana" font-size="15px" opacity="1" text-anchor="middle" class="amcharts-map-image-label" transform="translate(92.375,-15)" fill-opacity="0.8">
                            <tspan y="8" x="0">Langues officielles: Anglais</tspan>
                        </text>
                    </g>
                    <g class="amcharts-map-image-container" role="menuitem" aria-label=" " transform="translate(1715.0839425896013,-462.37964409600704) scale(4)" cursor="pointer">
                        <circle r="0.5" cx="0" cy="0" fill="#4bd8b5" stroke="#000000" fill-opacity="0.8" stroke-width="0.01" stroke-opacity="1" transform="translate(0,0) scale(1)" class="amcharts-map-image"></circle>
                        <text y="8" fill="#4bd8b5" font-family="Verdana" font-size="15px" opacity="1" text-anchor="middle" class="amcharts-map-image-label" transform="translate(39.890625,-15)" fill-opacity="0.8">
                            <tspan y="8" x="0">Pays:Gambia</tspan>
                        </text>
                    </g>
                    <g class="amcharts-map-image-container" role="menuitem" aria-label=" " transform="translate(1727.077536593724,-50.393684678268244) scale(4)" cursor="pointer">
                        <circle r="0.5" cx="0" cy="0" fill="#4bd8b5" stroke="#000000" fill-opacity="0.8" stroke-width="0.01" stroke-opacity="1" transform="translate(0,0) scale(1)" class="amcharts-map-image"></circle>
                        <text y="8" fill="#4bd8b5" font-family="Verdana" font-size="15px" opacity="1" text-anchor="middle" class="amcharts-map-image-label" transform="translate(50.78125,-15)" fill-opacity="0.8">
                            <tspan y="8" x="0">Capitale :Banjul</tspan>
                        </text>
                    </g>
                    <g class="amcharts-map-image-container" role="menuitem" aria-label=" " transform="translate(1845.0917562795019,289.56207784489436) scale(4)" cursor="pointer">
                        <circle r="0.5" cx="0" cy="0" fill="#5affd9" stroke="#000000" fill-opacity="1" stroke-width="0.01" stroke-opacity="1" transform="translate(0,0) scale(1)" class="amcharts-map-image amcharts-selected-object"></circle>
                    </g>
                    <g class="amcharts-map-image-container" role="menuitem" aria-label=" " transform="translate(1731.0925594792247,101.64528022950667) scale(4)" cursor="pointer">
                        <circle r="0.5" cx="0" cy="0" fill="#4bd8b5" stroke="#000000" fill-opacity="0.8" stroke-width="0.01" stroke-opacity="1" transform="translate(0,0) scale(1)" class="amcharts-map-image"></circle>
                        <text y="8" fill="#4bd8b5" font-family="Verdana" font-size="15px" opacity="1" text-anchor="middle" class="amcharts-map-image-label" transform="translate(101,-15)" fill-opacity="0.8">
                            <tspan y="8" x="0">Superficie totale:11 300 km2</tspan>
                        </text>
                    </g>
                    <g class="amcharts-map-image-container" role="menuitem" aria-label=" " transform="translate(1711.0689197041008,-330.364318963356) scale(4)" cursor="pointer">
                        <circle r="0.5" cx="0" cy="0" fill="#4bd8b5" stroke="#000000" fill-opacity="0.8" stroke-width="0.01" stroke-opacity="1" transform="translate(0,0) scale(1)" class="amcharts-map-image"></circle>
                        <text y="8" fill="#4bd8b5" font-family="Verdana" font-size="15px" opacity="1" text-anchor="middle" class="amcharts-map-image-label" transform="translate(149.015625,-15)" fill-opacity="0.8">
                            <tspan y="8" x="0">Président de la République Adama Barrow</tspan>
                        </text>
                    </g>
                    <g class="amcharts-map-image-container" role="menuitem" aria-label=" " transform="translate(1731.0925594792247,237.64131181273925) scale(4)" cursor="pointer">
                        <circle r="0.5" cx="0" cy="0" fill="#4bd8b5" stroke="#000000" fill-opacity="0.8" stroke-width="0.01" stroke-opacity="1" transform="translate(0,0) scale(1)" class="amcharts-map-image"></circle>
                        <text y="8" fill="#4bd8b5" font-family="Verdana" font-size="15px" opacity="1" text-anchor="middle" class="amcharts-map-image-label" transform="translate(146.25,-15)" fill-opacity="0.8">
                            <tspan y="8" x="0">Population totale (2018): 2 092 731 hab.</tspan>
                        </text>
                    </g>
                    <g class="amcharts-map-image-container" role="menuitem" aria-label=" " transform="translate(1743.0861534833477,397.6073731867586) scale(4)" cursor="pointer">
                        <circle r="0.5" cx="0" cy="0" fill="#4bd8b5" stroke="#000000" fill-opacity="0.8" stroke-width="0.01" stroke-opacity="1" transform="translate(0,0) scale(1)" class="amcharts-map-image"></circle>
                        <text y="8" fill="#4bd8b5" font-family="Verdana" font-size="15px" opacity="1" text-anchor="middle" class="amcharts-map-image-label" transform="translate(78.125,-15)" fill-opacity="0.8">
                            <tspan y="8" x="0">Monnaie: Dalasi (GMD​)</tspan>
                        </text>
                    </g>
                </g>
            </g>
        </g>
       
    </svg>