<?xml version="1.0" encoding="UTF-8" standalone="no" ?>
    <!DOCTYPE svg PUBLIC "-//W3C//DTD SVG 1.1//EN" "http://www.w3.org/Graphics/SVG/1.1/DTD/svg11.dtd">
    <svg version="1.1" xmlns="http://www.w3.org/2000/svg" xmlns:xlink="http://www.w3.org/1999/xlink" width="1366" height="576" xml:space="preserve">
        <desc>JavaScript chart by amCharts 3.21.15</desc>
        <desc>This map was created using Pixel Map Generator by amCharts and is licensed under the Creative Commons Attribution 4.0 International License. You may use this map the way you see fit as long as proper attribution to the name of amCharts is given in the form of link to http://pixelmap.amcharts.com/ To view a copy of this license, visit http://creativecommons.org/licenses/by/4.0/ If you would like to use this map without any attribution, you can acquire a commercial license for the JavaScript Maps - a tool that was used to produce this map. To do so, visit amCharts Online Store: http://www.amcharts.com/online-store/</desc>
        <g>
            <path cs="100,100" d="M0.5,0.5 L1365.5,0.5 L1365.5,575.5 L0.5,575.5 Z" fill="#238095" stroke="#000000" fill-opacity="1" stroke-width="1" stroke-opacity="1" class="amcharts-bg"></path>
        </g>
        <g>
            <g transform="translate(585.638748173606,149.10704240264718) scale(0.49312)">
                <g transform="translate(0,0) scale(0.4940304465912564)">
                    <path cs="100,100" d="M363.68,953.4L320.9,964.44L242.93,935.6L214.48,884.34L198.61,911.48L256.49,958.26L260.27,1006.62L297.62,1013.82L297.64,1037.42L331.05,1072.13L308.66,1086.6L304.54,1115.07L442.7,1079.8L521.76,1028.6L495.32,987.59L385.79,978.12L363.68,953.4z" transform="translate(0,-13)" stroke-width="4.104815750650171" fill="#beb6cb" fill-opacity="1" stroke="#238095" stroke-opacity="1" class="amcharts-map-area amcharts-map-area-GH-CP" role="menuitem" aria-label="Central  " countryId="GH-CP" cursor="pointer"></path>
                    <path cs="100,100" d="M532.11,0L472.29,46.66L461.29,30.91L330.62,26.54L302.85,90.28L341,141.2L364.96,158L382.89,124.06L420.71,125.02L445.21,95.68L460.42,96.7L466.42,117.78L569.85,84.63L589.21,18.37L556.46,5.12L532.11,0z" transform="translate(0,-13)" stroke-width="4.104815750650171" fill="#beb6cb" fill-opacity="1" stroke="#238095" stroke-opacity="1" class="amcharts-map-area amcharts-map-area-GH-UE" role="menuitem" aria-label="Upper East  " countryId="GH-UE"></path>
                    <path cs="100,100" d="M210.83,1165.92L304.54,1115.07L308.66,1086.6L331.05,1072.13L297.64,1037.42L297.62,1013.82L260.27,1006.62L256.49,958.26L198.61,911.48L214.48,884.34L186.15,869.08L187.28,849.38L167.87,846.39L150.62,868.24L78.49,820.64L67.87,774.47L37.97,767.45L30.02,747.56L0.34,826.59L42.15,991.5L57.21,1008.82L84.59,1008.85L95.96,1051.24L89.41,1089.5L26.01,1102.07L163.05,1133.03L210.83,1165.92z" transform="translate(0,-13)" stroke-width="4.10481575065017" fill="#beb6cb" fill-opacity="1" stroke="#238095" stroke-opacity="1" class="amcharts-map-area amcharts-map-area-GH-WP" role="menuitem" aria-label="Western  " countryId="GH-WP"></path>
                    <path cs="100,100" d="M330.62,26.54L76.7,30.18L59.61,96.69L89.24,135.62L75.99,153.68L91.5,164.9L93.58,275.67L167.88,246.76L269.55,242.79L290.05,202.34L306.99,198.24L290.07,181.9L296.41,159.67L318.67,134.7L341,141.2L302.85,90.28L330.62,26.54z" transform="translate(0,-13)" stroke-width="4.104815750650171" fill="#beb6cb" fill-opacity="1" stroke="#238095" stroke-opacity="1" class="amcharts-map-area amcharts-map-area-GH-UW" role="menuitem" aria-label="Upper West  " countryId="GH-UW"></path>
                    <path cs="100,100" d="M652.4,437.94L620.25,437.66L603.39,481.1L603.72,505.28L630.37,510.45L621.78,530.09L573.44,515.36L515.37,550.92L554.17,575.53L588.08,625.69L609.18,682.85L628.83,695.33L626.46,727.06L611.97,787.48L625.01,809.95L606.2,841.6L625.18,864.36L602.66,911.28L643.24,928.89L643.77,948.17L689.53,943.12L715.42,974.98L707.27,981.61L757.79,975.83L799.66,913.6L720.23,858.45L678.98,785.96L675.12,762.2L693.7,751.69L702.26,698.76L675.31,666.03L696.26,630.68L689.36,539.19L714.31,522.12L652.4,437.94z" transform="translate(0,-13)" stroke-width="4.10481575065017" fill="#beb6cb" fill-opacity="1" stroke="#238095" stroke-opacity="1" class="amcharts-map-area amcharts-map-area-GH-TV" role="menuitem" aria-label="Volta  " countryId="GH-TV"></path>
                    <path cs="100,100" d="M547.9,722.44L460.85,659.43L362.37,673.93L338.89,644.6L289.63,695.59L254.66,672.54L208.23,673.74L201.68,693.19L251.65,724.91L170.96,759.3L156.71,784.03L183.85,786.92L172.02,811.58L152.94,814.58L150.62,868.24L167.87,846.39L187.28,849.38L186.15,869.08L214.48,884.34L242.93,935.6L320.9,964.44L363.68,953.4L372.56,900.88L426.31,827.21L416.09,804.17L443.88,794.07L478.18,747.08L547.9,722.44z" transform="translate(0,-13)" stroke-width="4.10481575065017" fill="#beb6cb" fill-opacity="1" stroke="#238095" stroke-opacity="1" class="amcharts-map-area amcharts-map-area-GH-AH" role="menuitem" aria-label="Ashanti  " countryId="GH-AH" cursor="pointer"></path>
                    <path cs="100,100" d="M707.27,981.61L715.42,974.98L689.53,943.12L643.77,948.17L628.44,961.53L605.23,939.47L579.51,942.51L553.24,979.98L500.22,976.37L495.32,987.59L521.76,1028.6L639.84,978.97L707.27,981.61z" transform="translate(0,-13)" stroke-width="4.10481575065017" fill="#beb6cb" fill-opacity="1" stroke="#238095" stroke-opacity="1" class="amcharts-map-area amcharts-map-area-GH-AA" role="menuitem" aria-label="Greater Accra  " countryId="GH-AA"></path>
                    <path cs="100,100" d="M626.46,727.06L547.9,722.44L478.18,747.08L443.88,794.07L416.09,804.17L426.31,827.21L372.56,900.88L363.68,953.4L385.79,978.12L495.32,987.59L500.22,976.37L553.24,979.98L579.51,942.51L605.23,939.47L628.44,961.53L643.77,948.17L643.24,928.89L602.66,911.28L625.18,864.36L606.2,841.6L625.01,809.95L611.97,787.48L626.46,727.06z" transform="translate(0,-13)" stroke-width="4.10481575065017" fill="#beb6cb" fill-opacity="1" stroke="#238095" stroke-opacity="1" class="amcharts-map-area amcharts-map-area-GH-EP" role="menuitem" aria-label="Eastern  " countryId="GH-EP" cursor="pointer"></path>
                    <path cs="100,100" d="M652.4,437.94L677.11,418.89L663.75,389.57L682.84,325.88L660.23,305.01L627.85,318.36L640.52,302.24L626.36,296.1L654.14,287.32L633.17,274.97L648.63,273.88L657.53,160.81L618.6,140.55L569.85,84.63L466.42,117.78L460.42,96.7L445.21,95.68L420.71,125.02L382.89,124.06L364.96,158L341,141.2L318.67,134.7L296.41,159.67L290.07,181.9L306.99,198.24L290.05,202.34L269.55,242.79L167.88,246.76L93.58,275.67L108.59,344.94L87.93,384.59L108.41,391.87L118.77,433.64L203.57,547.58L270.84,530.4L244.61,507.99L252.73,462.96L336.59,437.8L375.87,455.6L380.98,474.23L358.21,511.45L390.39,579.54L439.64,518.39L515.37,550.92L573.44,515.36L621.78,530.09L630.37,510.45L603.72,505.28L603.39,481.1L620.25,437.66L652.4,437.94z" transform="translate(0,-13)" stroke-width="4.10481575065017" fill="#beb6cb" fill-opacity="1" stroke="#238095" stroke-opacity="1" class="amcharts-map-area amcharts-map-area-GH-NP" role="menuitem" aria-label="Northern  " countryId="GH-NP" cursor="pointer"></path>
                    <path cs="100,100" d="M515.37,550.92L439.64,518.39L390.39,579.54L358.21,511.45L380.98,474.23L375.87,455.6L336.59,437.8L252.73,462.96L244.61,507.99L270.84,530.4L203.57,547.58L118.77,433.64L136.15,538.22L85.09,586.47L57.99,652.83L52.37,718.43L30.02,747.56L37.97,767.45L67.87,774.47L78.49,820.64L150.62,868.24L152.94,814.58L172.02,811.58L183.85,786.92L156.71,784.03L170.96,759.3L251.65,724.91L201.68,693.19L208.23,673.74L254.66,672.54L289.63,695.59L338.89,644.6L362.37,673.93L460.85,659.43L547.9,722.44L626.46,727.06L628.83,695.33L609.18,682.85L588.08,625.69L554.17,575.53L515.37,550.92z" transform="translate(0,-13)" stroke-width="4.10481575065017" fill="#beb6cb" fill-opacity="1" stroke="#238095" stroke-opacity="1" class="amcharts-map-area amcharts-map-area-GH-BA" role="menuitem" aria-label="Brong Ahafo  " countryId="GH-BA" cursor="pointer"></path>
                </g>
                <g>
                    <g class="amcharts-map-image-container" role="menuitem" aria-label=" " transform="translate(604.8760578929365,-77.1873169754179) scale(2.027903958468527)" cursor="pointer">
                        <circle r="0.5" cx="0" cy="0" fill="#4bd8b5" stroke="#000000" fill-opacity="0.8" stroke-width="0.01" stroke-opacity="1" transform="translate(0,0) scale(1)" class="amcharts-map-image"></circle>
                        <text y="8" fill="#4bd8b5" font-family="Verdana" font-size="15px" opacity="1" text-anchor="middle" class="amcharts-map-image-label" transform="translate(38,-15)" fill-opacity="0.8">
                            <tspan y="8" x="0">Pays: Ghana</tspan>
                        </text>
                    </g>
                    <g class="amcharts-map-image-container" role="menuitem" aria-label=" " transform="translate(615.0234432659211,66.78797607467195) scale(2.027903958468527)">
                        <circle r="0.5" cx="0" cy="0" fill="#4bd8b5" stroke="#000000" fill-opacity="0.8" stroke-width="0.01" stroke-opacity="1" transform="translate(0,0) scale(1)" class="amcharts-map-image"></circle>
                        <text y="8" fill="#4bd8b5" font-family="Verdana" font-size="15px" opacity="1" text-anchor="middle" class="amcharts-map-image-label" transform="translate(88.9765625,-15)" fill-opacity="0.8">
                            <tspan y="8" x="0">Langues officielles Anglais</tspan>
                        </text>
                    </g>
                    <g class="amcharts-map-image-container" role="menuitem" aria-label=" " transform="translate(617.0489680969451,196.5747146986609) scale(2.027903958468527)" cursor="pointer">
                        <circle r="0.5" cx="0" cy="0" fill="#4bd8b5" stroke="#000000" fill-opacity="0.8" stroke-width="0.01" stroke-opacity="1" transform="translate(0,0) scale(1)" class="amcharts-map-image"></circle>
                        <text y="8" fill="#4bd8b5" font-family="Verdana" font-size="15px" opacity="1" text-anchor="middle" class="amcharts-map-image-label" transform="translate(105,-15)" fill-opacity="0.8">
                            <tspan y="8" x="0">Superficie totale 238 540 km2</tspan>
                        </text>
                    </g>
                    <g class="amcharts-map-image-container" role="menuitem" aria-label=" " transform="translate(602.8505330619124,-6.214903018118005) scale(2.027903958468527)" cursor="pointer">
                        <circle r="0.5" cx="0" cy="0" fill="#4bd8b5" stroke="#000000" fill-opacity="0.8" stroke-width="0.01" stroke-opacity="1" transform="translate(0,0) scale(1)" class="amcharts-map-image"></circle>
                        <text y="8" fill="#4bd8b5" font-family="Verdana" font-size="15px" opacity="1" text-anchor="middle" class="amcharts-map-image-label" transform="translate(93.890625,-15)" fill-opacity="0.8">
                            <tspan y="8" x="0">Président Nana Akufo-Addo</tspan>
                        </text>
                    </g>
                    <g class="amcharts-map-image-container" role="menuitem" aria-label=" " transform="translate(619.0794332324351,342.58047288424086) scale(2.027903958468527)" cursor="pointer">
                        <circle r="0.5" cx="0" cy="0" fill="#4bd8b5" stroke="#000000" fill-opacity="0.8" stroke-width="0.01" stroke-opacity="1" transform="translate(0,0) scale(1)" class="amcharts-map-image"></circle>
                        <text y="8" fill="#4bd8b5" font-family="Verdana" font-size="15px" opacity="1" text-anchor="middle" class="amcharts-map-image-label" transform="translate(74.953125,-15)" fill-opacity="0.8">
                            <tspan y="8" x="0">Densité 123 hab./km2</tspan>
                        </text>
                    </g>
                    <g class="amcharts-map-image-container" role="menuitem" aria-label=" " transform="translate(675.8929345904296,95.14038340454417) scale(2.027903958468527)" cursor="pointer">
                        <circle r="0.5" cx="0" cy="0" fill="#5affd9" stroke="#000000" fill-opacity="1" stroke-width="0.01" stroke-opacity="1" transform="translate(0,0) scale(1)" class="amcharts-map-image amcharts-selected-object"></circle>
                    </g>
                    <g class="amcharts-map-image-container" role="menuitem" aria-label=" " transform="translate(617.0489680969451,417.6187574169868) scale(2.027903958468527)" cursor="pointer">
                        <circle r="0.5" cx="0" cy="0" fill="#4bd8b5" stroke="#000000" fill-opacity="0.8" stroke-width="0.01" stroke-opacity="1" transform="translate(0,0) scale(1)" class="amcharts-map-image"></circle>
                        <text y="8" fill="#4bd8b5" font-family="Verdana" font-size="15px" opacity="1" text-anchor="middle" class="amcharts-map-image-label" transform="translate(29.515625,-15)" fill-opacity="0.8">
                            <tspan y="8" x="0">IDH 0,579</tspan>
                        </text>
                    </g>
                    <g class="amcharts-map-image-container" role="menuitem" aria-label=" " transform="translate(615.0234432659211,269.57759379145085) scale(2.027903958468527)" cursor="pointer">
                        <circle r="0.5" cx="0" cy="0" fill="#4bd8b5" stroke="#000000" fill-opacity="0.8" stroke-width="0.01" stroke-opacity="1" transform="translate(0,0) scale(1)" class="amcharts-map-image"></circle>
                        <text y="8" fill="#4bd8b5" font-family="Verdana" font-size="15px" opacity="1" text-anchor="middle" class="amcharts-map-image-label" transform="translate(159.875,-15)" fill-opacity="0.8">
                            <tspan y="8" x="0">Population totale (20201,2) 29 340 248 hab.</tspan>
                        </text>
                    </g>
                    <g class="amcharts-map-image-container" role="menuitem" aria-label=" " transform="translate(619.0794332324351,498.7286761383392) scale(2.027903958468527)" cursor="pointer">
                        <circle r="0.5" cx="0" cy="0" fill="#4bd8b5" stroke="#000000" fill-opacity="0.8" stroke-width="0.01" stroke-opacity="1" transform="translate(0,0) scale(1)" class="amcharts-map-image"></circle>
                        <text y="8" fill="#4bd8b5" font-family="Verdana" font-size="15px" opacity="1" text-anchor="middle" class="amcharts-map-image-label" transform="translate(67,-15)" fill-opacity="0.8">
                            <tspan y="8" x="0">Monnaie Cedi (GHS​)</tspan>
                        </text>
                    </g>
                    <g class="amcharts-map-image-container" role="menuitem" aria-label=" " transform="translate(619.0794332324351,129.65829070787524) scale(2.027903958468527)" cursor="pointer">
                        <circle r="0.5" cx="0" cy="0" fill="#4bd8b5" stroke="#000000" fill-opacity="0.8" stroke-width="0.01" stroke-opacity="1" transform="translate(0,0) scale(1)" class="amcharts-map-image"></circle>
                        <text y="8" fill="#4bd8b5" font-family="Verdana" font-size="15px" opacity="1" text-anchor="middle" class="amcharts-map-image-label" transform="translate(44.125,-15)" fill-opacity="0.8">
                            <tspan y="8" x="0">Capitale Accra</tspan>
                        </text>
                    </g>
                </g>
            </g>
        </g>
       
    </svg>