<?xml version="1.0" encoding="UTF-8" standalone="no" ?>
    <!DOCTYPE svg PUBLIC "-//W3C//DTD SVG 1.1//EN" "http://www.w3.org/Graphics/SVG/1.1/DTD/svg11.dtd">
    <svg version="1.1" xmlns="http://www.w3.org/2000/svg" xmlns:xlink="http://www.w3.org/1999/xlink" width="1366" height="576" xml:space="preserve">
        <desc>JavaScript chart by amCharts 3.21.15</desc>
        <desc>This map was created using Pixel Map Generator by amCharts and is licensed under the Creative Commons Attribution 4.0 International License. You may use this map the way you see fit as long as proper attribution to the name of amCharts is given in the form of link to http://pixelmap.amcharts.com/ To view a copy of this license, visit http://creativecommons.org/licenses/by/4.0/ If you would like to use this map without any attribution, you can acquire a commercial license for the JavaScript Maps - a tool that was used to produce this map. To do so, visit amCharts Online Store: http://www.amcharts.com/online-store/</desc>
        <g>
            <path cs="100,100" d="M0.5,0.5 L1365.5,0.5 L1365.5,575.5 L0.5,575.5 Z" fill="#b1bdce" stroke="#000000" fill-opacity="1" stroke-width="1" stroke-opacity="1" class="amcharts-bg"></path>
        </g>
        <g>
            <g transform="translate(560.9482742981651,224.099885666977) scale(0.25)">
                <g transform="translate(0,0) scale(1.2230857370661885)">
                    <path cs="100,100" d="M196.34,213.26L148.99,217.61L151.82,234.68L181.65,248.84L196.34,213.26zM289.81,186.6L280.51,174.52L269.67,180.57L230.16,188.06L201.25,250.65L246.35,213.8L262.5,221.14L237.19,250.65L277.61,235.49L291.47,192.16L289.81,186.6z" transform="translate(-1,-26)" stroke-width="3.270416683620877" fill="#e80707" fill-opacity="1" stroke="#b1bdce" stroke-opacity="1" class="amcharts-map-area amcharts-map-area-GW-BM" role="menuitem" aria-label="Biombo  " countryId="GW-BM" cursor="pointer"></path>
                    <path cs="100,100" d="M218.45,413.39L206.66,397.84L198.29,438.66L223.43,435.29L218.45,413.39zM199.45,408.84L177.55,407.68L188.06,433.13L199.45,408.84zM175.23,405.17L127.27,423.48L172.51,441.86L175.23,405.17zM232.95,397.64L236.98,370.28L219.8,384.84L232.95,397.64zM281.63,375.21L257.29,377.53L252.21,405.13L281.63,375.21zM138.2,368.36L118.12,389.68L147.03,392.34L138.2,368.36zM280.64,318.87L262.27,330.85L276.88,333.38L280.64,318.87zM138.45,330.74L148.99,313.2L113.04,329.87L138.45,330.74zM128.71,296.48L82.17,320.54L120.04,318.59L128.71,296.48zM210.74,296.25L171.7,328.94L219.39,329.87L210.74,296.25zM331.11,281.85L289.85,309.59L331.59,299.62L331.11,281.85zM361.83,272.68L365.88,268.27L343.2,268.93L340.27,302.04L361.83,272.68z" transform="translate(-1,-26)" stroke-width="3.270416683620877" fill="#e80707" fill-opacity="1" stroke="#b1bdce" stroke-opacity="1" class="amcharts-map-area amcharts-map-area-GW-BL" role="menuitem" aria-label="Bolama  " countryId="GW-BL" cursor="pointer"></path>
                    <path cs="100,100" d="M312.15,210.4L291.47,192.16L277.61,235.49L312.15,210.4z" transform="translate(-1,-26)" stroke-width="3.270416683620877" fill="#e80707" fill-opacity="1" stroke="#b1bdce" stroke-opacity="1" class="amcharts-map-area amcharts-map-area-GW-BS" role="menuitem" aria-label="Bissau  " countryId="GW-BS" cursor="pointer"></path>
                    <path cs="100,100" d="M417.24,0L344.73,32.93L334.59,80.69L259.53,106.84L280.51,174.52L289.81,186.6L291.47,192.16L312.15,210.4L457.36,194.4L468.05,174.75L437.06,136.28L475.56,130.63L466.41,67.88L494.97,54.87L489.37,0.3L417.24,0z" transform="translate(-1,-26)" stroke-width="3.270416683620877" fill="#e80707" fill-opacity="1" stroke="#b1bdce" stroke-opacity="1" class="amcharts-map-area amcharts-map-area-GW-OI" role="menuitem" aria-label="Oio  " countryId="GW-OI" cursor="pointer"></path>
                    <path cs="100,100" d="M433.3,470.94L531.76,318.04L605.13,301.11L585.44,279.35L525.76,291.16L500.52,264.02L465.82,332.43L383.84,338.85L368.95,352.7L356.26,350.04L346.79,361.3L347.94,400.7L394.27,418.69L401.35,388.84L395.16,452.94L455.49,393.41L433.3,470.94z" transform="translate(-1,-26)" stroke-width="3.270416683620877" fill="#e80707" fill-opacity="1" stroke="#b1bdce" stroke-opacity="1" class="amcharts-map-area amcharts-map-area-GW-TO" role="menuitem" aria-label="Tombali  " countryId="GW-TO" cursor="pointer"></path>
                    <path cs="100,100" d="M628.6,0.9L489.37,0.3L494.97,54.87L466.41,67.88L475.56,130.63L437.06,136.28L468.05,174.75L457.36,194.4L438.42,223.9L475.35,244.99L500.52,264.02L525.76,291.16L585.44,279.35L579.74,157.24L604.79,135.96L571.95,79.3L598.6,59.19L578.69,39.19L616.98,47.84L628.6,0.9z" transform="translate(-1,-26)" stroke-width="3.270416683620877" fill="#e80707" fill-opacity="1" stroke="#b1bdce" stroke-opacity="1" class="amcharts-map-area amcharts-map-area-GW-BA" role="menuitem" aria-label="Bafatá  " countryId="GW-BA" cursor="pointer"></path>
                    <path cs="100,100" d="M475.35,244.99L437.44,235.8L438.1,199.09L340.27,213.8L310.65,259.25L343.2,268.93L365.88,268.27L397.93,248.84L395.71,274.78L421.29,261.51L410.49,274.52L453.8,287.36L423.28,305.17L425.23,285.76L381.74,283.85L392.53,296.71L331.11,318.87L323.43,361.24L362.72,327.23L368.6,327.42L360.54,344.47L365.42,350.04L383.84,338.85L465.82,332.43L500.52,264.02L475.35,244.99z" transform="translate(-1,-26)" stroke-width="3.270416683620877" fill="#e80707" fill-opacity="1" stroke="#b1bdce" stroke-opacity="1" class="amcharts-map-area amcharts-map-area-GW-QU" role="menuitem" aria-label="Quinara  " countryId="GW-QU" cursor="pointer"></path>
                    <path cs="100,100" d="M790.4,1.58L628.6,0.9L616.98,47.84L578.69,39.19L598.6,59.19L571.95,79.3L604.79,135.96L579.74,157.24L585.44,279.35L605.13,301.11L642.65,272.02L789.97,261.01L791.54,182.23L726.12,142.19L799.15,104.12L790.4,1.58z" transform="translate(-1,-26)" stroke-width="3.270416683620877" fill="#e80707" fill-opacity="1" stroke="#b1bdce" stroke-opacity="1" class="amcharts-map-area amcharts-map-area-GW-GA" role="menuitem" aria-label="Gabú  " countryId="GW-GA" cursor="pointer"></path>
                    <path cs="100,100" d="M334.59,80.69L344.73,32.93L268.47,66.6L134.02,60.44L0.85,93.46L72.12,136.71L175.93,88.48L98.52,155.76L135.92,206.17L159.76,213.8L197.39,204.15L228.37,175.05L269.67,180.57L280.51,174.52L259.53,106.84L334.59,80.69z" transform="translate(-1,-26)" stroke-width="3.270416683620877" fill="#e80707" fill-opacity="1" stroke="#b1bdce" stroke-opacity="1" class="amcharts-map-area amcharts-map-area-GW-CA" role="menuitem" aria-label="Cacheu  " countryId="GW-CA" cursor="pointer"></path>
                </g>
                <g>
                    <g class="amcharts-map-image-container" role="menuitem" aria-label=" " transform="translate(1380.4112554250125,-232.98560205373826) scale(4)" cursor="pointer">
                        <circle r="0.5" cx="0" cy="0" fill="#4bd8b5" stroke="#000000" fill-opacity="0.8" stroke-width="0.01" stroke-opacity="1" transform="translate(0,0) scale(1)" class="amcharts-map-image"></circle>
                        <text y="8" fill="#4bd8b5" font-family="Verdana" font-size="15px" opacity="1" text-anchor="middle" class="amcharts-map-image-label" transform="translate(179.6875,-15)" fill-opacity="0.8">
                            <tspan y="8" x="0">Président de la République Umaro Sissoco Embaló</tspan>
                        </text>
                    </g>
                    <g class="amcharts-map-image-container" role="menuitem" aria-label=" " transform="translate(1736.3903591981266,103.03274249045572) scale(4)" cursor="pointer">
                        <circle r="0.5" cx="0" cy="0" fill="#5affd9" stroke="#000000" fill-opacity="1" stroke-width="0.01" stroke-opacity="1" transform="translate(0,0) scale(1)" class="amcharts-map-image amcharts-selected-object"></circle>
                    </g>
                    <g class="amcharts-map-image-container" role="menuitem" aria-label=" " transform="translate(1388.3980052880547,-128.98662183100024) scale(4)" cursor="pointer">
                        <circle r="0.5" cx="0" cy="0" fill="#4bd8b5" stroke="#000000" fill-opacity="0.8" stroke-width="0.01" stroke-opacity="1" transform="translate(0,0) scale(1)" class="amcharts-map-image"></circle>
                        <text y="8" fill="#4bd8b5" font-family="Verdana" font-size="15px" opacity="1" text-anchor="middle" class="amcharts-map-image-label" transform="translate(96.84375,-15)" fill-opacity="0.8">
                            <tspan y="8" x="0">Langues officielles Portugais</tspan>
                        </text>
                    </g>
                    <g class="amcharts-map-image-container" role="menuitem" aria-label=" " transform="translate(1380.4112554250125,-352.9947745746727) scale(4)" cursor="pointer">
                        <circle r="0.5" cx="0" cy="0" fill="#4bd8b5" stroke="#000000" fill-opacity="0.8" stroke-width="0.01" stroke-opacity="1" transform="translate(0,0) scale(1)" class="amcharts-map-image"></circle>
                        <text y="8" fill="#4bd8b5" font-family="Verdana" font-size="15px" opacity="1" text-anchor="middle" class="amcharts-map-image-label" transform="translate(66.890625,-15)" fill-opacity="0.8">
                            <tspan y="8" x="0">Pays :Guinee Bissau</tspan>
                        </text>
                    </g>
                    <g class="amcharts-map-image-container" role="menuitem" aria-label=" " transform="translate(1376.3873033500645,243.01490509768098) scale(4)" cursor="pointer">
                        <circle r="0.5" cx="0" cy="0" fill="#0f2f27" stroke="#000000" fill-opacity="0.8" stroke-width="0.01" stroke-opacity="1" transform="translate(0,0) scale(1)" class="amcharts-map-image"></circle>
                        <text y="8" fill="#0f2f27" font-family="Verdana" font-size="15px" opacity="1" text-anchor="middle" class="amcharts-map-image-label" transform="translate(142.84375,-15)" fill-opacity="0.8">
                            <tspan y="8" x="0">Population totale (2018) 1 833 247 hab.</tspan>
                        </text>
                    </g>
                    <g class="amcharts-map-image-container" role="menuitem" aria-label=" " transform="translate(1392.3852647908905,923.0138823343698) scale(4)" cursor="pointer">
                        <circle r="0.5" cx="0" cy="0" fill="#0f2f27" stroke="#000000" fill-opacity="0.8" stroke-width="0.01" stroke-opacity="1" transform="translate(0,0) scale(1)" class="amcharts-map-image"></circle>
                        <text y="8" fill="#0f2f27" font-family="Verdana" font-size="15px" opacity="1" text-anchor="middle" class="amcharts-map-image-label" transform="translate(99.046875,-15)" fill-opacity="0.8">
                            <tspan y="8" x="0">Monnaie Franc CFA (UEMOA)</tspan>
                        </text>
                    </g>
                    <g class="amcharts-map-image-container" role="menuitem" aria-label=" " transform="translate(1380.4112554250125,119.00624221654014) scale(4)">
                        <circle r="0.5" cx="0" cy="0" fill="#0f2f27" stroke="#000000" fill-opacity="0.8" stroke-width="0.01" stroke-opacity="1" transform="translate(0,0) scale(1)" class="amcharts-map-image"></circle>
                        <text y="8" fill="#0f2f27" font-family="Verdana" font-size="15px" opacity="1" text-anchor="middle" class="amcharts-map-image-label" transform="translate(100.234375,-15)" fill-opacity="0.8">
                            <tspan y="8" x="0">Superficie totale 36 120 km2</tspan>
                        </text>
                    </g>
                    <g class="amcharts-map-image-container" role="menuitem" aria-label=" " transform="translate(1384.3862840704776,-1.0029303043942746) scale(4)" cursor="pointer">
                        <circle r="0.5" cx="0" cy="0" fill="#0f2f27" stroke="#000000" fill-opacity="0.8" stroke-width="0.01" stroke-opacity="1" transform="translate(0,0) scale(1)" class="amcharts-map-image"></circle>
                        <text y="8" fill="#0f2f27" font-family="Verdana" font-size="15px" opacity="1" text-anchor="middle" class="amcharts-map-image-label" transform="translate(47.875,-15)" fill-opacity="0.8">
                            <tspan y="8" x="0">Capitale Bissau</tspan>
                        </text>
                    </g>
                    <g class="amcharts-map-image-container" role="menuitem" aria-label=" " transform="translate(1376.3873033500645,370.99859662428696) scale(4)" cursor="pointer">
                        <circle r="0.5" cx="0" cy="0" fill="#0f2f27" stroke="#000000" fill-opacity="0.8" stroke-width="0.01" stroke-opacity="1" transform="translate(0,0) scale(1)" class="amcharts-map-image"></circle>
                        <text y="8" fill="#0f2f27" font-family="Verdana" font-size="15px" opacity="1" text-anchor="middle" class="amcharts-map-image-label" transform="translate(70.1875,-15)" fill-opacity="0.8">
                            <tspan y="8" x="0">Densité 48 hab./km2</tspan>
                        </text>
                    </g>
                    <g class="amcharts-map-image-container" role="menuitem" aria-label=" " transform="translate(1052.3918916012312,639.0133741876009) scale(4)" cursor="pointer">
                        <circle r="0.5" cx="0" cy="0" fill="#0f2f27" stroke="#000000" fill-opacity="0.8" stroke-width="0.01" stroke-opacity="1" transform="translate(0,0) scale(1)" class="amcharts-map-image"></circle>
                        <text y="8" fill="#0f2f27" font-family="Verdana" font-size="15px" opacity="1" text-anchor="middle" class="amcharts-map-image-label" transform="translate(260.65625,-15)" fill-opacity="0.8">
                            <tspan y="8" x="0">Taux de chômage (2019) Decrease Positive.svg 6,1 % de la pop. active</tspan>
                        </text>
                    </g>
                    <g class="amcharts-map-image-container" role="menuitem" aria-label=" " transform="translate(-699.6050416018599,1315.0128610640834) scale(4)" cursor="pointer">
                        <circle r="0.5" cx="0" cy="0" fill="#0f2f27" stroke="#000000" fill-opacity="0.8" stroke-width="0.01" stroke-opacity="1" transform="translate(0,0) scale(1)" class="amcharts-map-image"></circle>
                        <text y="8" fill="#0f2f27" font-family="Verdana" font-size="15px" opacity="1" text-anchor="middle" class="amcharts-map-image-label" transform="translate(292.875,-15)" fill-opacity="0.8">
                            <tspan y="8" x="0">Copyright © CEDEAO 2020 by Abdoulahi MBENGUE, Seyni Kaire, Khadim CISSE</tspan>
                        </text>
                    </g>
                    <g class="amcharts-map-image-container" role="menuitem" aria-label=" " transform="translate(1376.3873033500645,483.02101928217917) scale(4)" cursor="pointer">
                        <circle r="0.5" cx="0" cy="0" fill="#0f2f27" stroke="#000000" fill-opacity="0.8" stroke-width="0.01" stroke-opacity="1" transform="translate(0,0) scale(1)" class="amcharts-map-image"></circle>
                        <text y="8" fill="#0f2f27" font-family="Verdana" font-size="15px" opacity="1" text-anchor="middle" class="amcharts-map-image-label" transform="translate(204.4375,-15)" fill-opacity="0.8">
                            <tspan y="8" x="0">PIB nominal (2018) en augmentation 1,45 milliards de $</tspan>
                        </text>
                    </g>
                    <g class="amcharts-map-image-container" role="menuitem" aria-label=" " transform="translate(1352.4025920461966,766.9970657142069) scale(4)" cursor="pointer">
                        <circle r="0.5" cx="0" cy="0" fill="#0f2f27" stroke="#000000" fill-opacity="0.8" stroke-width="0.01" stroke-opacity="1" transform="translate(0,0) scale(1)" class="amcharts-map-image"></circle>
                        <text y="8" fill="#0f2f27" font-family="Verdana" font-size="15px" opacity="1" text-anchor="middle" class="amcharts-map-image-label" transform="translate(124.734375,-15)" fill-opacity="0.8">
                            <tspan y="8" x="0">IDH (2017) en augmentation 0,455</tspan>
                        </text>
                    </g>
                </g>
            </g>
        </g>
       
    </svg>