<?xml version="1.0" encoding="UTF-8" standalone="no" ?>
    <!DOCTYPE svg PUBLIC "-//W3C//DTD SVG 1.1//EN" "http://www.w3.org/Graphics/SVG/1.1/DTD/svg11.dtd">
    <svg version="1.1" xmlns="http://www.w3.org/2000/svg" xmlns:xlink="http://www.w3.org/1999/xlink" width="1366" height="576" xml:space="preserve">
        <desc>JavaScript chart by amCharts 3.21.15</desc>
        <desc>This map was created using Pixel Map Generator by amCharts and is licensed under the Creative Commons Attribution 4.0 International License. You may use this map the way you see fit as long as proper attribution to the name of amCharts is given in the form of link to http://pixelmap.amcharts.com/ To view a copy of this license, visit http://creativecommons.org/licenses/by/4.0/ If you would like to use this map without any attribution, you can acquire a commercial license for the JavaScript Maps - a tool that was used to produce this map. To do so, visit amCharts Online Store: http://www.amcharts.com/online-store/</desc>
        <g>
            <path cs="100,100" d="M0.5,0.5 L1365.5,0.5 L1365.5,575.5 L0.5,575.5 Z" fill="#238095" stroke="#000000" fill-opacity="1" stroke-width="1" stroke-opacity="1" class="amcharts-bg"></path>
        </g>
        <g>
            <g transform="translate(585.638748173606,149.10704240264718) scale(0.49312)">
                <g transform="translate(0,0) scale(0.4940304465912564)">
                    <path cs="100,100" d="M363.68,953.4L320.9,964.44L242.93,935.6L214.48,884.34L198.61,911.48L256.49,958.26L260.27,1006.62L297.62,1013.82L297.64,1037.42L331.05,1072.13L308.66,1086.6L304.54,1115.07L442.7,1079.8L521.76,1028.6L495.32,987.59L385.79,978.12L363.68,953.4z" transform="translate(0,-13)" stroke-width="4.104815750650171" fill="#beb6cb" fill-opacity="1" stroke="#238095" stroke-opacity="1" class="amcharts-map-area amcharts-map-area-GH-CP" role="menuitem" aria-label="Central  " countryId="GH-CP" cursor="pointer"></path>
                    <path cs="100,100" d="M532.11,0L472.29,46.66L461.29,30.91L330.62,26.54L302.85,90.28L341,141.2L364.96,158L382.89,124.06L420.71,125.02L445.21,95.68L460.42,96.7L466.42,117.78L569.85,84.63L589.21,18.37L556.46,5.12L532.11,0z" transform="translate(0,-13)" stroke-width="4.104815750650171" fill="#beb6cb" fill-opacity="1" stroke="#238095" stroke-opacity="1" class="amcharts-map-area amcharts-map-area-GH-UE" role="menuitem" aria-label="Upper East  " countryId="GH-UE"></path>
                    <path cs="100,100" d="M210.83,1165.92L304.54,1115.07L308.66,1086.6L331.05,1072.13L297.64,1037.42L297.62,1013.82L260.27,1006.62L256.49,958.26L198.61,911.48L214.48,884.34L186.15,869.08L187.28,849.38L167.87,846.39L150.62,868.24L78.49,820.64L67.87,774.47L37.97,767.45L30.02,747.56L0.34,826.59L42.15,991.5L57.21,1008.82L84.59,1008.85L95.96,1051.24L89.41,1089.5L26.01,1102.07L163.05,1133.03L210.83,1165.92z" transform="translate(0,-13)" stroke-width="4.10481575065017" fill="#beb6cb" fill-opacity="1" stroke="#238095" stroke-opacity="1" class="amcharts-map-area amcharts-map-area-GH-WP" role="menuitem" aria-label="Western  " countryId="GH-WP"></path>
                    <path cs="100,100" d="M330.62,26.54L76.7,30.18L59.61,96.69L89.24,135.62L75.99,153.68L91.5,164.9L93.58,275.67L167.88,246.76L269.55,242.79L290.05,202.34L306.99,198.24L290.07,181.9L296.41,159.67L318.67,134.7L341,141.2L302.85,90.28L330.62,26.54z" transform="translate(0,-13)" stroke-width="4.104815750650171" fill="#beb6cb" fill-opacity="1" stroke="#238095" stroke-opacity="1" class="amcharts-map-area amcharts-map-area-GH-UW" role="menuitem" aria-label="Upper West  " countryId="GH-UW"></path>
                    <path cs="100,100" d="M652.4,437.94L620.25,437.66L603.39,481.1L603.72,505.28L630.37,510.45L621.78,530.09L573.44,515.36L515.37,550.92L554.17,575.53L588.08,625.69L609.18,682.85L628.83,695.33L626.46,727.06L611.97,787.48L625.01,809.95L606.2,841.6L625.18,864.36L602.66,911.28L643.24,928.89L643.77,948.17L689.53,943.12L715.42,974.98L707.27,981.61L757.79,975.83L799.66,913.6L720.23,858.45L678.98,785.96L675.12,762.2L693.7,751.69L702.26,698.76L675.31,666.03L696.26,630.68L689.36,539.19L714.31,522.12L652.4,437.94z" transform="translate(0,-13)" stroke-width="4.10481575065017" fill="#beb6cb" fill-opacity="1" stroke="#238095" stroke-opacity="1" class="amcharts-map-area amcharts-map-area-GH-TV" role="menuitem" aria-label="Volta  " countryId="GH-TV"></path>
                    <path cs="100,100" d="M547.9,722.44L460.85,659.43L362.37,673.93L338.89,644.6L289.63,695.59L254.66,672.54L208.23,673.74L201.68,693.19L251.65,724.91L170.96,759.3L156.71,784.03L183.85,786.92L172.02,811.58L152.94,814.58L150.62,868.24L167.87,846.39L187.28,849.38L186.15,869.08L214.48,884.34L242.93,935.6L320.9,964.44L363.68,953.4L372.56,900.88L426.31,827.21L416.09,804.17L443.88,794.07L478.18,747.08L547.9,722.44z" transform="translate(0,-13)" stroke-width="4.10481575065017" fill="#beb6cb" fill-opacity="1" stroke="#238095" stroke-opacity="1" class="amcharts-map-area amcharts-map-area-GH-AH" role="menuitem" aria-label="Ashanti  " countryId="GH-AH" cursor="pointer"></path>
                    <path cs="100,100" d="M707.27,981.61L715.42,974.98L689.53,943.12L643.77,948.17L628.44,961.53L605.23,939.47L579.51,942.51L553.24,979.98L500.22,976.37L495.32,987.59L521.76,1028.6L639.84,978.97L707.27,981.61z" transform="translate(0,-13)" stroke-width="4.10481575065017" fill="#beb6cb" fill-opacity="1" stroke="#238095" stroke-opacity="1" class="amcharts-map-area amcharts-map-area-GH-AA" role="menuitem" aria-label="Greater Accra  " countryId="GH-AA"></path>
                    <path cs="100,100" d="M626.46,727.06L547.9,722.44L478.18,747.08L443.88,794.07L416.09,804.17L426.31,827.21L372.56,900.88L363.68,953.4L385.79,978.12L495.32,987.59L500.22,976.37L553.24,979.98L579.51,942.51L605.23,939.47L628.44,961.53L643.77,948.17L643.24,928.89L602.66,911.28L625.18,864.36L606.2,841.6L625.01,809.95L611.97,787.48L626.46,727.06z" transform="translate(0,-13)" stroke-width="4.10481575065017" fill="#beb6cb" fill-opacity="1" stroke="#238095" stroke-opacity="1" class="amcharts-map-area amcharts-map-area-GH-EP" role="menuitem" aria-label="Eastern  " countryId="GH-EP" cursor="pointer"></path>
                    <path cs="100,100" d="M652.4,437.94L677.11,418.89L663.75,389.57L682.84,325.88L660.23,305.01L627.85,318.36L640.52,302.24L626.36,296.1L654.14,287.32L633.17,274.97L648.63,273.88L657.53,160.81L618.6,140.55L569.85,84.63L466.42,117.78L460.42,96.7L445.21,95.68L420.71,125.02L382.89,124.06L364.96,158L341,141.2L318.67,134.7L296.41,159.67L290.07,181.9L306.99,198.24L290.05,202.34L269.55,242.79L167.88,246.76L93.58,275.67L108.59,344.94L87.93,384.59L108.41,391.87L118.77,433.64L203.57,547.58L270.84,530.4L244.61,507.99L252.73,462.96L336.59,437.8L375.87,455.6L380.98,474.23L358.21,511.45L390.39,579.54L439.64,518.39L515.37,550.92L573.44,515.36L621.78,530.09L630.37,510.45L603.72,505.28L603.39,481.1L620.25,437.66L652.4,437.94z" transform="translate(0,-13)" stroke-width="4.10481575065017" fill="#beb6cb" fill-opacity="1" stroke="#238095" stroke-opacity="1" class="amcharts-map-area amcharts-map-area-GH-NP" role="menuitem" aria-label="Northern  " countryId="GH-NP" cursor="pointer"></path>
                    <path cs="100,100" d="M515.37,550.92L439.64,518.39L390.39,579.54L358.21,511.45L380.98,474.23L375.87,455.6L336.59,437.8L252.73,462.96L244.61,507.99L270.84,530.4L203.57,547.58L118.77,433.64L136.15,538.22L85.09,586.47L57.99,652.83L52.37,718.43L30.02,747.56L37.97,767.45L67.87,774.47L78.49,820.64L150.62,868.24L152.94,814.58L172.02,811.58L183.85,786.92L156.71,784.03L170.96,759.3L251.65,724.91L201.68,693.19L208.23,673.74L254.66,672.54L289.63,695.59L338.89,644.6L362.37,673.93L460.85,659.43L547.9,722.44L626.46,727.06L628.83,695.33L609.18,682.85L588.08,625.69L554.17,575.53L515.37,550.92z" transform="translate(0,-13)" stroke-width="4.10481575065017" fill="#beb6cb" fill-opacity="1" stroke="#238095" stroke-opacity="1" class="amcharts-map-area amcharts-map-area-GH-BA" role="menuitem" aria-label="Brong Ahafo  " countryId="GH-BA" cursor="pointer"></path>
                </g>
                <g>
                    <g class="amcharts-map-image-container" role="menuitem" aria-label=" " transform="translate(604.8760578929365,-77.1873169754179) scale(2.027903958468527)" cursor="pointer">
                        <circle r="0.5" cx="0" cy="0" fill="#4bd8b5" stroke="#000000" fill-opacity="0.8" stroke-width="0.01" stroke-opacity="1" transform="translate(0,0) scale(1)" class="amcharts-map-image"></circle>
                        <text y="8" fill="#4bd8b5" font-family="Verdana" font-size="15px" opacity="1" text-anchor="middle" class="amcharts-map-image-label" transform="translate(38,-15)" fill-opacity="0.8">
                            <tspan y="8" x="0">Pays: Ghana</tspan>
                        </text>
                    </g>
                    <g class="amcharts-map-image-container" role="menuitem" aria-label=" " transform="translate(615.0234432659211,66.78797607467195) scale(2.027903958468527)">
                        <circle r="0.5" cx="0" cy="0" fill="#4bd8b5" stroke="#000000" fill-opacity="0.8" stroke-width="0.01" stroke-opacity="1" transform="translate(0,0) scale(1)" class="amcharts-map-image"></circle>
                        <text y="8" fill="#4bd8b5" font-family="Verdana" font-size="15px" opacity="1" text-anchor="middle" class="amcharts-map-image-label" transform="translate(88.9765625,-15)" fill-opacity="0.8">
                            <tspan y="8" x="0">Langues officielles Anglais</tspan>
                        </text>
                    </g>
                    <g class="amcharts-map-image-container" role="menuitem" aria-label=" " transform="translate(617.0489680969451,196.5747146986609) scale(2.027903958468527)" cursor="pointer">
                        <circle r="0.5" cx="0" cy="0" fill="#4bd8b5" stroke="#000000" fill-opacity="0.8" stroke-width="0.01" stroke-opacity="1" transform="translate(0,0) scale(1)" class="amcharts-map-image"></circle>
                        <text y="8" fill="#4bd8b5" font-family="Verdana" font-size="15px" opacity="1" text-anchor="middle" class="amcharts-map-image-label" transform="translate(105,-15)" fill-opacity="0.8">
                            <tspan y="8" x="0">Superficie totale 238 540 km2</tspan>
                        </text>
                    </g>
                    <g class="amcharts-map-image-container" role="menuitem" aria-label=" " transform="translate(602.8505330619124,-6.214903018118005) scale(2.027903958468527)" cursor="pointer">
                        <circle r="0.5" cx="0" cy="0" fill="#4bd8b5" stroke="#000000" fill-opacity="0.8" stroke-width="0.01" stroke-opacity="1" transform="translate(0,0) scale(1)" class="amcharts-map-image"></circle>
                        <text y="8" fill="#4bd8b5" font-family="Verdana" font-size="15px" opacity="1" text-anchor="middle" class="amcharts-map-image-label" transform="translate(93.890625,-15)" fill-opacity="0.8">
                            <tspan y="8" x="0">Président Nana Akufo-Addo</tspan>
                        </text>
                    </g>
                    <g class="amcharts-map-image-container" role="menuitem" aria-label=" " transform="translate(619.0794332324351,342.58047288424086) scale(2.027903958468527)" cursor="pointer">
                        <circle r="0.5" cx="0" cy="0" fill="#4bd8b5" stroke="#000000" fill-opacity="0.8" stroke-width="0.01" stroke-opacity="1" transform="translate(0,0) scale(1)" class="amcharts-map-image"></circle>
                        <text y="8" fill="#4bd8b5" font-family="Verdana" font-size="15px" opacity="1" text-anchor="middle" class="amcharts-map-image-label" transform="translate(74.953125,-15)" fill-opacity="0.8">
                            <tspan y="8" x="0">Densité 123 hab./km2</tspan>
                        </text>
                    </g>
                    <g class="amcharts-map-image-container" role="menuitem" aria-label=" " transform="translate(675.8929345904296,95.14038340454417) scale(2.027903958468527)" cursor="pointer">
                        <circle r="0.5" cx="0" cy="0" fill="#5affd9" stroke="#000000" fill-opacity="1" stroke-width="0.01" stroke-opacity="1" transform="translate(0,0) scale(1)" class="amcharts-map-image amcharts-selected-object"></circle>
                    </g>
                    <g class="amcharts-map-image-container" role="menuitem" aria-label=" " transform="translate(617.0489680969451,417.6187574169868) scale(2.027903958468527)" cursor="pointer">
                        <circle r="0.5" cx="0" cy="0" fill="#4bd8b5" stroke="#000000" fill-opacity="0.8" stroke-width="0.01" stroke-opacity="1" transform="translate(0,0) scale(1)" class="amcharts-map-image"></circle>
                        <text y="8" fill="#4bd8b5" font-family="Verdana" font-size="15px" opacity="1" text-anchor="middle" class="amcharts-map-image-label" transform="translate(29.515625,-15)" fill-opacity="0.8">
                            <tspan y="8" x="0">IDH 0,579</tspan>
                        </text>
                    </g>
                    <g class="amcharts-map-image-container" role="menuitem" aria-label=" " transform="translate(615.0234432659211,269.57759379145085) scale(2.027903958468527)" cursor="pointer">
                        <circle r="0.5" cx="0" cy="0" fill="#4bd8b5" stroke="#000000" fill-opacity="0.8" stroke-width="0.01" stroke-opacity="1" transform="translate(0,0) scale(1)" class="amcharts-map-image"></circle>
                        <text y="8" fill="#4bd8b5" font-family="Verdana" font-size="15px" opacity="1" text-anchor="middle" class="amcharts-map-image-label" transform="translate(159.875,-15)" fill-opacity="0.8">
                            <tspan y="8" x="0">Population totale (20201,2) 29 340 248 hab.</tspan>
                        </text>
                    </g>
                    <g class="amcharts-map-image-container" role="menuitem" aria-label=" " transform="translate(619.0794332324351,498.7286761383392) scale(2.027903958468527)" cursor="pointer">
                        <circle r="0.5" cx="0" cy="0" fill="#4bd8b5" stroke="#000000" fill-opacity="0.8" stroke-width="0.01" stroke-opacity="1" transform="translate(0,0) scale(1)" class="amcharts-map-image"></circle>
                        <text y="8" fill="#4bd8b5" font-family="Verdana" font-size="15px" opacity="1" text-anchor="middle" class="amcharts-map-image-label" transform="translate(67,-15)" fill-opacity="0.8">
                            <tspan y="8" x="0">Monnaie Cedi (GHS​)</tspan>
                        </text>
                    </g>
                    <g class="amcharts-map-image-container" role="menuitem" aria-label=" " transform="translate(619.0794332324351,129.65829070787524) scale(2.027903958468527)" cursor="pointer">
                        <circle r="0.5" cx="0" cy="0" fill="#4bd8b5" stroke="#000000" fill-opacity="0.8" stroke-width="0.01" stroke-opacity="1" transform="translate(0,0) scale(1)" class="amcharts-map-image"></circle>
                        <text y="8" fill="#4bd8b5" font-family="Verdana" font-size="15px" opacity="1" text-anchor="middle" class="amcharts-map-image-label" transform="translate(44.125,-15)" fill-opacity="0.8">
                            <tspan y="8" x="0">Capitale Accra</tspan>
                        </text>
                    </g>
                </g>
            </g>
        </g>
        <g transform="translate(20,20)">
            <path class="app-brand-logo-white" fill="#000000" d="M5.033,31.105h0.941l3.383,8.306H8.514l-0.819-2.016H3.176l-0.868,2.016H1.465L5.033,31.105zM3.408,36.749h4.055l-1.967-4.801L3.408,36.749z"></path>
            <path class="app-brand-logo-white" fill="#000000" d="M19.117,32.436l-3.493,4.226h-0.196l-3.493-4.226v6.975h-0.83v-8.306h0.757l3.665,4.434l3.651-4.434h0.77v8.306h-0.831V32.436z"></path>
            <path class="app-brand-logo-white" fill="#000000" d="M26.997,37.64c1.026,0,1.747-0.403,2.284-0.819l0.941,1.478c-0.855,0.77-1.955,1.234-3.286,1.234c-2.504,0-4.385-1.845-4.385-4.276c0-2.43,1.881-4.275,4.385-4.275c1.331,0,2.431,0.464,3.286,1.234l-0.941,1.478c-0.537-0.415-1.258-0.818-2.284-0.818c-1.404,0-2.332,1.063-2.332,2.382C24.664,36.578,25.593,37.64,26.997,37.64z"></path>
            <path class="app-brand-logo-white" fill="#000000" d="M38.382,36.101h-3.92v3.31h-2.053v-8.306h2.053v3.212h3.92v-3.212h2.052v8.306h-2.052V36.101z"></path>
            <path class="app-brand-logo-white" fill="#000000" d="M45.455,31.105h2.418l3.139,8.306h-2.076l-0.562-1.527h-3.481l-0.574,1.527h-2.077L45.455,31.105zM45.406,36.382h2.468l-1.209-3.249L45.406,36.382z"></path>
            <path class="app-brand-logo-white" fill="#000000" d="M52.858,31.105h3.945c1.93,0,3.2,0.88,3.2,2.748c0,1.234-0.818,2.162-1.966,2.492l2.418,2.675v0.391h-2.187l-2.528-2.944h-0.83v2.944h-2.052V31.105z M54.91,32.888v2.052h1.857c0.672,0,1.111-0.415,1.111-1.026c0-0.635-0.44-1.026-1.111-1.026H54.91z"></path>
            <path class="app-brand-logo-white" fill="#000000" d="M66.295,32.901v6.511h-2.052v-6.511H61.69v-1.795h7.084v1.795H66.295z"></path>
            <path class="app-brand-logo-white" fill="#000000" d="M70.889,36.944c0.635,0.416,1.588,0.831,2.626,0.831c0.818,0,1.331-0.269,1.331-0.795c0-0.366-0.269-0.586-0.94-0.757l-1.355-0.367c-1.43-0.378-2.114-1.136-2.114-2.308c0-1.418,1.087-2.553,3.322-2.553c1.185,0,2.345,0.33,2.993,0.659l-0.574,1.772c-0.647-0.367-1.649-0.672-2.504-0.672c-0.806,0-1.149,0.257-1.149,0.66c0,0.366,0.245,0.513,0.757,0.659l1.478,0.428c1.526,0.439,2.186,1.184,2.186,2.333c0,1.6-1.405,2.699-3.482,2.699c-1.221,0-2.504-0.416-3.053-0.721L70.889,36.944z"></path>
            <path class="app-brand-logo-white" fill="#000000" d="M68.607,20.635c-11.025-0.002-20.827-0.004-20.827-0.004l0,0h-0.001c-6.516,0-9.003-4.935-11.637-10.16C33.664,5.553,31.101,0.466,24.983,0.466c-6.116,0-8.68,5.086-11.159,10.005c-2.633,5.225-5.121,10.16-11.637,10.16l-0.1,0.021c-0.858,0.001-1.554,0.699-1.553,1.558c0.001,0.858,0.697,1.553,1.556,1.553h0.001c0.096,0,0.082-0.02,0.096-0.02c8.433,0,11.75-6.583,14.416-11.871c2.243-4.45,4.181-8.295,8.38-8.295c4.2,0,6.138,3.843,8.381,8.295c2.665,5.288,5.982,11.869,14.414,11.871l0,0c0,0,15.624,0.005,29.88,0.005v-0.005C74.371,23.744,71.319,22.668,68.607,20.635z"></path>
            <path fill="none" stroke="#5DC7CE" stroke-width="4" stroke-linejoin="round" stroke-miterlimit="10" d="M-3.898,22.214"></path>
            <path fill="#1FA3DD" d="M78,20.632h-0.34c-7.295,0-11.593-6.37-13.915-11.714c-0.634-1.459-2.431-4.912-5.418-5.437c-1.08-0.189-2.724-0.046-4.403,1.725c-0.66,0.697-1.174,1.559-1.67,2.392c-1.073,1.801-1.695,2.642-2.672,2.578c-1.162-0.075-1.823-1.083-2.803-2.72c-0.579-0.966-1.177-1.965-2.022-2.743c-0.868-0.798-2.114-1.199-3.416-1.09c-1.345,0.109-2.55,0.722-3.305,1.685c-0.927,1.181-1.485,2.496-2.025,3.77c-0.089,0.21-0.177,0.409-0.265,0.612c0.134,0.261,0.266,0.523,0.397,0.785c0.451,0.894,0.898,1.778,1.361,2.632c0.114-0.201,0.24-0.398,0.349-0.6c0.393-0.731,0.713-1.484,1.022-2.212c0.482-1.136,0.937-2.209,1.609-3.065c0.211-0.269,0.646-0.466,1.108-0.504c0.425-0.037,0.833,0.071,1.058,0.278c0.514,0.473,0.973,1.24,1.459,2.052c1.079,1.801,2.421,4.042,5.271,4.227c3.01,0.187,4.469-2.281,5.547-4.09c0.428-0.719,0.833-1.397,1.256-1.844c0.88-0.928,1.427-0.833,1.605-0.801c0.979,0.172,2.255,1.658,3.104,3.612c3.805,8.761,9.761,13.586,16.769,13.586H78c0.859,0,1.556-0.697,1.556-1.556C79.555,21.328,78.859,20.632,78,20.632z M30.888,16.92c-2.452,2.683-5.12,3.728-9.512,3.728H10.661c-2.101,1.846-4.801,3.095-8.474,3.095H2.023c0.055,0.006,0.108,0.017,0.122,0.02h19.187c5.283-0.003,8.814-1.421,11.852-4.743c0.879-0.962,1.684-1.957,2.426-2.974c-0.612-1.01-1.162-2.044-1.679-3.054C33.05,14.343,32.039,15.661,30.888,16.92z"></path>
        </g>
    </svg>