<?xml version="1.0" encoding="UTF-8" standalone="no" ?>
    <!DOCTYPE svg PUBLIC "-//W3C//DTD SVG 1.1//EN" "http://www.w3.org/Graphics/SVG/1.1/DTD/svg11.dtd">
    <svg version="1.1" xmlns="http://www.w3.org/2000/svg" xmlns:xlink="http://www.w3.org/1999/xlink" width="1366" height="576" xml:space="preserve">
        <desc>JavaScript chart by amCharts 3.21.15</desc>
        <desc>This map was created using Pixel Map Generator by amCharts and is licensed under the Creative Commons Attribution 4.0 International License. You may use this map the way you see fit as long as proper attribution to the name of amCharts is given in the form of link to http://pixelmap.amcharts.com/ To view a copy of this license, visit http://creativecommons.org/licenses/by/4.0/ If you would like to use this map without any attribution, you can acquire a commercial license for the JavaScript Maps - a tool that was used to produce this map. To do so, visit amCharts Online Store: http://www.amcharts.com/online-store/</desc>
        <g>
            <path cs="100,100" d="M0.5,0.5 L1365.5,0.5 L1365.5,575.5 L0.5,575.5 Z" fill="#b1bdce" stroke="#000000" fill-opacity="1" stroke-width="1" stroke-opacity="1" class="amcharts-bg"></path>
        </g>
        <g>
            <g transform="translate(560.9482742981651,224.099885666977) scale(0.25)">
                <g transform="translate(0,0) scale(1.2230857370661885)">
                    <path cs="100,100" d="M196.34,213.26L148.99,217.61L151.82,234.68L181.65,248.84L196.34,213.26zM289.81,186.6L280.51,174.52L269.67,180.57L230.16,188.06L201.25,250.65L246.35,213.8L262.5,221.14L237.19,250.65L277.61,235.49L291.47,192.16L289.81,186.6z" transform="translate(-1,-26)" stroke-width="3.270416683620877" fill="#e80707" fill-opacity="1" stroke="#b1bdce" stroke-opacity="1" class="amcharts-map-area amcharts-map-area-GW-BM" role="menuitem" aria-label="Biombo  " countryId="GW-BM" cursor="pointer"></path>
                    <path cs="100,100" d="M218.45,413.39L206.66,397.84L198.29,438.66L223.43,435.29L218.45,413.39zM199.45,408.84L177.55,407.68L188.06,433.13L199.45,408.84zM175.23,405.17L127.27,423.48L172.51,441.86L175.23,405.17zM232.95,397.64L236.98,370.28L219.8,384.84L232.95,397.64zM281.63,375.21L257.29,377.53L252.21,405.13L281.63,375.21zM138.2,368.36L118.12,389.68L147.03,392.34L138.2,368.36zM280.64,318.87L262.27,330.85L276.88,333.38L280.64,318.87zM138.45,330.74L148.99,313.2L113.04,329.87L138.45,330.74zM128.71,296.48L82.17,320.54L120.04,318.59L128.71,296.48zM210.74,296.25L171.7,328.94L219.39,329.87L210.74,296.25zM331.11,281.85L289.85,309.59L331.59,299.62L331.11,281.85zM361.83,272.68L365.88,268.27L343.2,268.93L340.27,302.04L361.83,272.68z" transform="translate(-1,-26)" stroke-width="3.270416683620877" fill="#e80707" fill-opacity="1" stroke="#b1bdce" stroke-opacity="1" class="amcharts-map-area amcharts-map-area-GW-BL" role="menuitem" aria-label="Bolama  " countryId="GW-BL" cursor="pointer"></path>
                    <path cs="100,100" d="M312.15,210.4L291.47,192.16L277.61,235.49L312.15,210.4z" transform="translate(-1,-26)" stroke-width="3.270416683620877" fill="#e80707" fill-opacity="1" stroke="#b1bdce" stroke-opacity="1" class="amcharts-map-area amcharts-map-area-GW-BS" role="menuitem" aria-label="Bissau  " countryId="GW-BS" cursor="pointer"></path>
                    <path cs="100,100" d="M417.24,0L344.73,32.93L334.59,80.69L259.53,106.84L280.51,174.52L289.81,186.6L291.47,192.16L312.15,210.4L457.36,194.4L468.05,174.75L437.06,136.28L475.56,130.63L466.41,67.88L494.97,54.87L489.37,0.3L417.24,0z" transform="translate(-1,-26)" stroke-width="3.270416683620877" fill="#e80707" fill-opacity="1" stroke="#b1bdce" stroke-opacity="1" class="amcharts-map-area amcharts-map-area-GW-OI" role="menuitem" aria-label="Oio  " countryId="GW-OI" cursor="pointer"></path>
                    <path cs="100,100" d="M433.3,470.94L531.76,318.04L605.13,301.11L585.44,279.35L525.76,291.16L500.52,264.02L465.82,332.43L383.84,338.85L368.95,352.7L356.26,350.04L346.79,361.3L347.94,400.7L394.27,418.69L401.35,388.84L395.16,452.94L455.49,393.41L433.3,470.94z" transform="translate(-1,-26)" stroke-width="3.270416683620877" fill="#e80707" fill-opacity="1" stroke="#b1bdce" stroke-opacity="1" class="amcharts-map-area amcharts-map-area-GW-TO" role="menuitem" aria-label="Tombali  " countryId="GW-TO" cursor="pointer"></path>
                    <path cs="100,100" d="M628.6,0.9L489.37,0.3L494.97,54.87L466.41,67.88L475.56,130.63L437.06,136.28L468.05,174.75L457.36,194.4L438.42,223.9L475.35,244.99L500.52,264.02L525.76,291.16L585.44,279.35L579.74,157.24L604.79,135.96L571.95,79.3L598.6,59.19L578.69,39.19L616.98,47.84L628.6,0.9z" transform="translate(-1,-26)" stroke-width="3.270416683620877" fill="#e80707" fill-opacity="1" stroke="#b1bdce" stroke-opacity="1" class="amcharts-map-area amcharts-map-area-GW-BA" role="menuitem" aria-label="Bafatá  " countryId="GW-BA" cursor="pointer"></path>
                    <path cs="100,100" d="M475.35,244.99L437.44,235.8L438.1,199.09L340.27,213.8L310.65,259.25L343.2,268.93L365.88,268.27L397.93,248.84L395.71,274.78L421.29,261.51L410.49,274.52L453.8,287.36L423.28,305.17L425.23,285.76L381.74,283.85L392.53,296.71L331.11,318.87L323.43,361.24L362.72,327.23L368.6,327.42L360.54,344.47L365.42,350.04L383.84,338.85L465.82,332.43L500.52,264.02L475.35,244.99z" transform="translate(-1,-26)" stroke-width="3.270416683620877" fill="#e80707" fill-opacity="1" stroke="#b1bdce" stroke-opacity="1" class="amcharts-map-area amcharts-map-area-GW-QU" role="menuitem" aria-label="Quinara  " countryId="GW-QU" cursor="pointer"></path>
                    <path cs="100,100" d="M790.4,1.58L628.6,0.9L616.98,47.84L578.69,39.19L598.6,59.19L571.95,79.3L604.79,135.96L579.74,157.24L585.44,279.35L605.13,301.11L642.65,272.02L789.97,261.01L791.54,182.23L726.12,142.19L799.15,104.12L790.4,1.58z" transform="translate(-1,-26)" stroke-width="3.270416683620877" fill="#e80707" fill-opacity="1" stroke="#b1bdce" stroke-opacity="1" class="amcharts-map-area amcharts-map-area-GW-GA" role="menuitem" aria-label="Gabú  " countryId="GW-GA" cursor="pointer"></path>
                    <path cs="100,100" d="M334.59,80.69L344.73,32.93L268.47,66.6L134.02,60.44L0.85,93.46L72.12,136.71L175.93,88.48L98.52,155.76L135.92,206.17L159.76,213.8L197.39,204.15L228.37,175.05L269.67,180.57L280.51,174.52L259.53,106.84L334.59,80.69z" transform="translate(-1,-26)" stroke-width="3.270416683620877" fill="#e80707" fill-opacity="1" stroke="#b1bdce" stroke-opacity="1" class="amcharts-map-area amcharts-map-area-GW-CA" role="menuitem" aria-label="Cacheu  " countryId="GW-CA" cursor="pointer"></path>
                </g>
                <g>
                    <g class="amcharts-map-image-container" role="menuitem" aria-label=" " transform="translate(1380.4112554250125,-232.98560205373826) scale(4)" cursor="pointer">
                        <circle r="0.5" cx="0" cy="0" fill="#4bd8b5" stroke="#000000" fill-opacity="0.8" stroke-width="0.01" stroke-opacity="1" transform="translate(0,0) scale(1)" class="amcharts-map-image"></circle>
                        <text y="8" fill="#4bd8b5" font-family="Verdana" font-size="15px" opacity="1" text-anchor="middle" class="amcharts-map-image-label" transform="translate(179.6875,-15)" fill-opacity="0.8">
                            <tspan y="8" x="0">Président de la République Umaro Sissoco Embaló</tspan>
                        </text>
                    </g>
                    <g class="amcharts-map-image-container" role="menuitem" aria-label=" " transform="translate(1736.3903591981266,103.03274249045572) scale(4)" cursor="pointer">
                        <circle r="0.5" cx="0" cy="0" fill="#5affd9" stroke="#000000" fill-opacity="1" stroke-width="0.01" stroke-opacity="1" transform="translate(0,0) scale(1)" class="amcharts-map-image amcharts-selected-object"></circle>
                    </g>
                    <g class="amcharts-map-image-container" role="menuitem" aria-label=" " transform="translate(1388.3980052880547,-128.98662183100024) scale(4)" cursor="pointer">
                        <circle r="0.5" cx="0" cy="0" fill="#4bd8b5" stroke="#000000" fill-opacity="0.8" stroke-width="0.01" stroke-opacity="1" transform="translate(0,0) scale(1)" class="amcharts-map-image"></circle>
                        <text y="8" fill="#4bd8b5" font-family="Verdana" font-size="15px" opacity="1" text-anchor="middle" class="amcharts-map-image-label" transform="translate(96.84375,-15)" fill-opacity="0.8">
                            <tspan y="8" x="0">Langues officielles Portugais</tspan>
                        </text>
                    </g>
                    <g class="amcharts-map-image-container" role="menuitem" aria-label=" " transform="translate(1380.4112554250125,-352.9947745746727) scale(4)" cursor="pointer">
                        <circle r="0.5" cx="0" cy="0" fill="#4bd8b5" stroke="#000000" fill-opacity="0.8" stroke-width="0.01" stroke-opacity="1" transform="translate(0,0) scale(1)" class="amcharts-map-image"></circle>
                        <text y="8" fill="#4bd8b5" font-family="Verdana" font-size="15px" opacity="1" text-anchor="middle" class="amcharts-map-image-label" transform="translate(66.890625,-15)" fill-opacity="0.8">
                            <tspan y="8" x="0">Pays :Guinee Bissau</tspan>
                        </text>
                    </g>
                    <g class="amcharts-map-image-container" role="menuitem" aria-label=" " transform="translate(1376.3873033500645,243.01490509768098) scale(4)" cursor="pointer">
                        <circle r="0.5" cx="0" cy="0" fill="#0f2f27" stroke="#000000" fill-opacity="0.8" stroke-width="0.01" stroke-opacity="1" transform="translate(0,0) scale(1)" class="amcharts-map-image"></circle>
                        <text y="8" fill="#0f2f27" font-family="Verdana" font-size="15px" opacity="1" text-anchor="middle" class="amcharts-map-image-label" transform="translate(142.84375,-15)" fill-opacity="0.8">
                            <tspan y="8" x="0">Population totale (2018) 1 833 247 hab.</tspan>
                        </text>
                    </g>
                    <g class="amcharts-map-image-container" role="menuitem" aria-label=" " transform="translate(1392.3852647908905,923.0138823343698) scale(4)" cursor="pointer">
                        <circle r="0.5" cx="0" cy="0" fill="#0f2f27" stroke="#000000" fill-opacity="0.8" stroke-width="0.01" stroke-opacity="1" transform="translate(0,0) scale(1)" class="amcharts-map-image"></circle>
                        <text y="8" fill="#0f2f27" font-family="Verdana" font-size="15px" opacity="1" text-anchor="middle" class="amcharts-map-image-label" transform="translate(99.046875,-15)" fill-opacity="0.8">
                            <tspan y="8" x="0">Monnaie Franc CFA (UEMOA)</tspan>
                        </text>
                    </g>
                    <g class="amcharts-map-image-container" role="menuitem" aria-label=" " transform="translate(1380.4112554250125,119.00624221654014) scale(4)">
                        <circle r="0.5" cx="0" cy="0" fill="#0f2f27" stroke="#000000" fill-opacity="0.8" stroke-width="0.01" stroke-opacity="1" transform="translate(0,0) scale(1)" class="amcharts-map-image"></circle>
                        <text y="8" fill="#0f2f27" font-family="Verdana" font-size="15px" opacity="1" text-anchor="middle" class="amcharts-map-image-label" transform="translate(100.234375,-15)" fill-opacity="0.8">
                            <tspan y="8" x="0">Superficie totale 36 120 km2</tspan>
                        </text>
                    </g>
                    <g class="amcharts-map-image-container" role="menuitem" aria-label=" " transform="translate(1384.3862840704776,-1.0029303043942746) scale(4)" cursor="pointer">
                        <circle r="0.5" cx="0" cy="0" fill="#0f2f27" stroke="#000000" fill-opacity="0.8" stroke-width="0.01" stroke-opacity="1" transform="translate(0,0) scale(1)" class="amcharts-map-image"></circle>
                        <text y="8" fill="#0f2f27" font-family="Verdana" font-size="15px" opacity="1" text-anchor="middle" class="amcharts-map-image-label" transform="translate(47.875,-15)" fill-opacity="0.8">
                            <tspan y="8" x="0">Capitale Bissau</tspan>
                        </text>
                    </g>
                    <g class="amcharts-map-image-container" role="menuitem" aria-label=" " transform="translate(1376.3873033500645,370.99859662428696) scale(4)" cursor="pointer">
                        <circle r="0.5" cx="0" cy="0" fill="#0f2f27" stroke="#000000" fill-opacity="0.8" stroke-width="0.01" stroke-opacity="1" transform="translate(0,0) scale(1)" class="amcharts-map-image"></circle>
                        <text y="8" fill="#0f2f27" font-family="Verdana" font-size="15px" opacity="1" text-anchor="middle" class="amcharts-map-image-label" transform="translate(70.1875,-15)" fill-opacity="0.8">
                            <tspan y="8" x="0">Densité 48 hab./km2</tspan>
                        </text>
                    </g>
                    <g class="amcharts-map-image-container" role="menuitem" aria-label=" " transform="translate(1052.3918916012312,639.0133741876009) scale(4)" cursor="pointer">
                        <circle r="0.5" cx="0" cy="0" fill="#0f2f27" stroke="#000000" fill-opacity="0.8" stroke-width="0.01" stroke-opacity="1" transform="translate(0,0) scale(1)" class="amcharts-map-image"></circle>
                        <text y="8" fill="#0f2f27" font-family="Verdana" font-size="15px" opacity="1" text-anchor="middle" class="amcharts-map-image-label" transform="translate(260.65625,-15)" fill-opacity="0.8">
                            <tspan y="8" x="0">Taux de chômage (2019) Decrease Positive.svg 6,1 % de la pop. active</tspan>
                        </text>
                    </g>
                    <g class="amcharts-map-image-container" role="menuitem" aria-label=" " transform="translate(-699.6050416018599,1315.0128610640834) scale(4)" cursor="pointer">
                        <circle r="0.5" cx="0" cy="0" fill="#0f2f27" stroke="#000000" fill-opacity="0.8" stroke-width="0.01" stroke-opacity="1" transform="translate(0,0) scale(1)" class="amcharts-map-image"></circle>
                        <text y="8" fill="#0f2f27" font-family="Verdana" font-size="15px" opacity="1" text-anchor="middle" class="amcharts-map-image-label" transform="translate(292.875,-15)" fill-opacity="0.8">
                            <tspan y="8" x="0">Copyright © CEDEAO 2020 by Abdoulahi MBENGUE, Seyni Kaire, Khadim CISSE</tspan>
                        </text>
                    </g>
                    <g class="amcharts-map-image-container" role="menuitem" aria-label=" " transform="translate(1376.3873033500645,483.02101928217917) scale(4)" cursor="pointer">
                        <circle r="0.5" cx="0" cy="0" fill="#0f2f27" stroke="#000000" fill-opacity="0.8" stroke-width="0.01" stroke-opacity="1" transform="translate(0,0) scale(1)" class="amcharts-map-image"></circle>
                        <text y="8" fill="#0f2f27" font-family="Verdana" font-size="15px" opacity="1" text-anchor="middle" class="amcharts-map-image-label" transform="translate(204.4375,-15)" fill-opacity="0.8">
                            <tspan y="8" x="0">PIB nominal (2018) en augmentation 1,45 milliards de $</tspan>
                        </text>
                    </g>
                    <g class="amcharts-map-image-container" role="menuitem" aria-label=" " transform="translate(1352.4025920461966,766.9970657142069) scale(4)" cursor="pointer">
                        <circle r="0.5" cx="0" cy="0" fill="#0f2f27" stroke="#000000" fill-opacity="0.8" stroke-width="0.01" stroke-opacity="1" transform="translate(0,0) scale(1)" class="amcharts-map-image"></circle>
                        <text y="8" fill="#0f2f27" font-family="Verdana" font-size="15px" opacity="1" text-anchor="middle" class="amcharts-map-image-label" transform="translate(124.734375,-15)" fill-opacity="0.8">
                            <tspan y="8" x="0">IDH (2017) en augmentation 0,455</tspan>
                        </text>
                    </g>
                </g>
            </g>
        </g>
        <g transform="translate(20,20)">
            <path class="app-brand-logo-white" fill="#000000" d="M5.033,31.105h0.941l3.383,8.306H8.514l-0.819-2.016H3.176l-0.868,2.016H1.465L5.033,31.105zM3.408,36.749h4.055l-1.967-4.801L3.408,36.749z"></path>
            <path class="app-brand-logo-white" fill="#000000" d="M19.117,32.436l-3.493,4.226h-0.196l-3.493-4.226v6.975h-0.83v-8.306h0.757l3.665,4.434l3.651-4.434h0.77v8.306h-0.831V32.436z"></path>
            <path class="app-brand-logo-white" fill="#000000" d="M26.997,37.64c1.026,0,1.747-0.403,2.284-0.819l0.941,1.478c-0.855,0.77-1.955,1.234-3.286,1.234c-2.504,0-4.385-1.845-4.385-4.276c0-2.43,1.881-4.275,4.385-4.275c1.331,0,2.431,0.464,3.286,1.234l-0.941,1.478c-0.537-0.415-1.258-0.818-2.284-0.818c-1.404,0-2.332,1.063-2.332,2.382C24.664,36.578,25.593,37.64,26.997,37.64z"></path>
            <path class="app-brand-logo-white" fill="#000000" d="M38.382,36.101h-3.92v3.31h-2.053v-8.306h2.053v3.212h3.92v-3.212h2.052v8.306h-2.052V36.101z"></path>
            <path class="app-brand-logo-white" fill="#000000" d="M45.455,31.105h2.418l3.139,8.306h-2.076l-0.562-1.527h-3.481l-0.574,1.527h-2.077L45.455,31.105zM45.406,36.382h2.468l-1.209-3.249L45.406,36.382z"></path>
            <path class="app-brand-logo-white" fill="#000000" d="M52.858,31.105h3.945c1.93,0,3.2,0.88,3.2,2.748c0,1.234-0.818,2.162-1.966,2.492l2.418,2.675v0.391h-2.187l-2.528-2.944h-0.83v2.944h-2.052V31.105z M54.91,32.888v2.052h1.857c0.672,0,1.111-0.415,1.111-1.026c0-0.635-0.44-1.026-1.111-1.026H54.91z"></path>
            <path class="app-brand-logo-white" fill="#000000" d="M66.295,32.901v6.511h-2.052v-6.511H61.69v-1.795h7.084v1.795H66.295z"></path>
            <path class="app-brand-logo-white" fill="#000000" d="M70.889,36.944c0.635,0.416,1.588,0.831,2.626,0.831c0.818,0,1.331-0.269,1.331-0.795c0-0.366-0.269-0.586-0.94-0.757l-1.355-0.367c-1.43-0.378-2.114-1.136-2.114-2.308c0-1.418,1.087-2.553,3.322-2.553c1.185,0,2.345,0.33,2.993,0.659l-0.574,1.772c-0.647-0.367-1.649-0.672-2.504-0.672c-0.806,0-1.149,0.257-1.149,0.66c0,0.366,0.245,0.513,0.757,0.659l1.478,0.428c1.526,0.439,2.186,1.184,2.186,2.333c0,1.6-1.405,2.699-3.482,2.699c-1.221,0-2.504-0.416-3.053-0.721L70.889,36.944z"></path>
            <path class="app-brand-logo-white" fill="#000000" d="M68.607,20.635c-11.025-0.002-20.827-0.004-20.827-0.004l0,0h-0.001c-6.516,0-9.003-4.935-11.637-10.16C33.664,5.553,31.101,0.466,24.983,0.466c-6.116,0-8.68,5.086-11.159,10.005c-2.633,5.225-5.121,10.16-11.637,10.16l-0.1,0.021c-0.858,0.001-1.554,0.699-1.553,1.558c0.001,0.858,0.697,1.553,1.556,1.553h0.001c0.096,0,0.082-0.02,0.096-0.02c8.433,0,11.75-6.583,14.416-11.871c2.243-4.45,4.181-8.295,8.38-8.295c4.2,0,6.138,3.843,8.381,8.295c2.665,5.288,5.982,11.869,14.414,11.871l0,0c0,0,15.624,0.005,29.88,0.005v-0.005C74.371,23.744,71.319,22.668,68.607,20.635z"></path>
            <path fill="none" stroke="#5DC7CE" stroke-width="4" stroke-linejoin="round" stroke-miterlimit="10" d="M-3.898,22.214"></path>
            <path fill="#1FA3DD" d="M78,20.632h-0.34c-7.295,0-11.593-6.37-13.915-11.714c-0.634-1.459-2.431-4.912-5.418-5.437c-1.08-0.189-2.724-0.046-4.403,1.725c-0.66,0.697-1.174,1.559-1.67,2.392c-1.073,1.801-1.695,2.642-2.672,2.578c-1.162-0.075-1.823-1.083-2.803-2.72c-0.579-0.966-1.177-1.965-2.022-2.743c-0.868-0.798-2.114-1.199-3.416-1.09c-1.345,0.109-2.55,0.722-3.305,1.685c-0.927,1.181-1.485,2.496-2.025,3.77c-0.089,0.21-0.177,0.409-0.265,0.612c0.134,0.261,0.266,0.523,0.397,0.785c0.451,0.894,0.898,1.778,1.361,2.632c0.114-0.201,0.24-0.398,0.349-0.6c0.393-0.731,0.713-1.484,1.022-2.212c0.482-1.136,0.937-2.209,1.609-3.065c0.211-0.269,0.646-0.466,1.108-0.504c0.425-0.037,0.833,0.071,1.058,0.278c0.514,0.473,0.973,1.24,1.459,2.052c1.079,1.801,2.421,4.042,5.271,4.227c3.01,0.187,4.469-2.281,5.547-4.09c0.428-0.719,0.833-1.397,1.256-1.844c0.88-0.928,1.427-0.833,1.605-0.801c0.979,0.172,2.255,1.658,3.104,3.612c3.805,8.761,9.761,13.586,16.769,13.586H78c0.859,0,1.556-0.697,1.556-1.556C79.555,21.328,78.859,20.632,78,20.632z M30.888,16.92c-2.452,2.683-5.12,3.728-9.512,3.728H10.661c-2.101,1.846-4.801,3.095-8.474,3.095H2.023c0.055,0.006,0.108,0.017,0.122,0.02h19.187c5.283-0.003,8.814-1.421,11.852-4.743c0.879-0.962,1.684-1.957,2.426-2.974c-0.612-1.01-1.162-2.044-1.679-3.054C33.05,14.343,32.039,15.661,30.888,16.92z"></path>
        </g>
    </svg>