<?xml version="1.0" encoding="UTF-8" standalone="no" ?>
    <!DOCTYPE svg PUBLIC "-//W3C//DTD SVG 1.1//EN" "http://www.w3.org/Graphics/SVG/1.1/DTD/svg11.dtd">
    <svg version="1.1" xmlns="http://www.w3.org/2000/svg" xmlns:xlink="http://www.w3.org/1999/xlink" width="1366" height="576" xml:space="preserve">
        <desc>JavaScript chart by amCharts 3.21.15</desc>
        <desc>This map was created using Pixel Map Generator by amCharts and is licensed under the Creative Commons Attribution 4.0 International License. You may use this map the way you see fit as long as proper attribution to the name of amCharts is given in the form of link to http://pixelmap.amcharts.com/ To view a copy of this license, visit http://creativecommons.org/licenses/by/4.0/ If you would like to use this map without any attribution, you can acquire a commercial license for the JavaScript Maps - a tool that was used to produce this map. To do so, visit amCharts Online Store: http://www.amcharts.com/online-store/</desc>
        <g>
            <path cs="100,100" d="M0.5,0.5 L1365.5,0.5 L1365.5,575.5 L0.5,575.5 Z" fill="#92193c" stroke="#000000" fill-opacity="1" stroke-width="1" stroke-opacity="1" class="amcharts-bg"></path>
        </g>
        <g>
            <g transform="translate(613.5735380261445,217.07737544111984) scale(0.25)">
                <g transform="translate(0,0) scale(0.6950813403134235)">
                    <path cs="100,100" d="M559.21,408.33L611.41,356.66L624.14,309.7L593.45,202.6L569.42,185.58L569.25,172.79L545.95,171.58L512.46,254.67L493.03,252.02L463.92,268.48L447.9,312.46L463.24,332.51L448.61,382.08L466.84,385.93L456.49,435.44L472.66,451.19L461.09,477.02L470.87,495.09L467.77,538.32L503.66,529.81L496.42,505.79L513.28,498.33L513.24,481.42L539.54,454.86L559.21,408.33z" transform="translate(0,-6)" stroke-width="5.754722171359592" fill="#55e5e8" fill-opacity="1" stroke="#92193c" stroke-opacity="1" class="amcharts-map-area amcharts-map-area-LR-NI" role="menuitem" aria-label="Nimba  " countryId="LR-NI"></path>
                    <path cs="100,100" d="M197.46,332.65L146.49,344.65L143.3,314.52L105.51,309.83L98.73,361.99L78.52,388.71L131.41,426.14L133.08,402.86L153.84,391.5L170.2,400.19L179.3,393.92L172.96,366.64L179.64,343.66L190.16,340.76L197.46,332.65z" transform="translate(0,-6)" stroke-width="5.754722171359592" fill="#55e5e8" fill-opacity="1" stroke="#92193c" stroke-opacity="1" class="amcharts-map-area amcharts-map-area-LR-BM" role="menuitem" aria-label="Bomi  " countryId="LR-BM"></path>
                    <path cs="100,100" d="M675.31,679.57L619.75,668.33L572.2,697.98L542.62,736.67L629.88,784.13L710.7,808.53L717.55,780.39L700.37,750.67L661.07,728.65L675.31,679.57z" transform="translate(0,-6)" stroke-width="5.754722171359592" fill="#55e5e8" fill-opacity="1" stroke="#92193c" stroke-opacity="1" class="amcharts-map-area amcharts-map-area-LR-GK" role="menuitem" aria-label="Grand Kru  " countryId="LR-GK"></path>
                    <path cs="100,100" d="M325.64,266.75L321.72,243.73L348.58,163.17L299.21,142.66L268,149.98L249.85,124.33L244.77,131.64L168.63,106.81L168.84,156.84L120.18,201.3L172.68,213.06L188.53,247.29L105.51,309.83L143.3,314.52L146.49,344.65L197.46,332.65L200.47,317.29L221.81,311.91L250.47,282.1L267.23,284.28L273.48,299.63L325.64,266.75z" transform="translate(0,-6)" stroke-width="5.754722171359592" fill="#55e5e8" fill-opacity="1" stroke="#92193c" stroke-opacity="1" class="amcharts-map-area amcharts-map-area-LR-GP" role="menuitem" aria-label="Gbapolu  " countryId="LR-GP"></path>
                    <path cs="100,100" d="M757.23,737.56L757.33,721.85L768.27,718.62L763.14,687.57L780.13,674.1L782.71,649.84L799.52,639.45L787.75,618.71L795.59,600.9L595.96,609.42L619.75,668.33L675.31,679.57L710.11,687L712.68,728.97L733.97,725.03L757.23,737.56z" transform="translate(0,-6)" stroke-width="5.754722171359592" fill="#55e5e8" fill-opacity="1" stroke="#92193c" stroke-opacity="1" class="amcharts-map-area amcharts-map-area-LR-RG" role="menuitem" aria-label="River Gee  " countryId="LR-RG"></path>
                    <path cs="100,100" d="M338.9,377L343.09,359.55L329.2,349.42L310.91,381.94L219.35,355.35L208.67,384.11L214.12,416.33L169.93,446.52L164.61,461.64L217.36,475.57L246.93,408.7L241.56,400.82L296.7,405.95L320.09,398.74L338.9,377z" transform="translate(0,-6)" stroke-width="5.754722171359592" fill="#55e5e8" fill-opacity="1" stroke="#92193c" stroke-opacity="1" class="amcharts-map-area amcharts-map-area-LR-MG" role="menuitem" aria-label="Margibi  " countryId="LR-MG" cursor="pointer"></path>
                    <path cs="100,100" d="M448.61,382.08L420.14,384.16L397.28,405.28L359.05,419.11L370.5,393.55L338.9,377L320.09,398.74L296.7,405.95L241.56,400.82L246.93,408.7L217.36,475.57L341.3,587.59L352.84,571.77L357.19,498.93L394.56,473.99L395.43,443.29L456.49,435.44L466.84,385.93L448.61,382.08z" transform="translate(0,-6)" stroke-width="5.754722171359592" fill="#55e5e8" fill-opacity="1" stroke="#92193c" stroke-opacity="1" class="amcharts-map-area amcharts-map-area-LR-GB" role="menuitem" aria-label="Grand Bassa  " countryId="LR-GB"></path>
                    <path cs="100,100" d="M559.21,408.33L539.54,454.86L513.24,481.42L513.28,498.33L496.42,505.79L503.66,529.81L565.81,563.25L580.34,547.03L600.02,553.51L611.42,576.59L586.39,595.69L595.96,609.42L795.59,600.9L788.41,535.56L779.06,543.37L721.92,513.5L717.41,491.27L707.21,489.25L710.18,466.44L696.94,451.83L599.67,438.4L598.41,416.52L588.78,409.47L582.97,420.43L559.21,408.33z" transform="translate(0,-6)" stroke-width="5.754722171359592" fill="#55e5e8" fill-opacity="1" stroke="#92193c" stroke-opacity="1" class="amcharts-map-area amcharts-map-area-LR-GD" role="menuitem" aria-label="Grand Gedeh  " countryId="LR-GD" cursor="pointer"></path>
                    <path cs="100,100" d="M105.51,309.83L188.53,247.29L172.68,213.06L120.18,201.3L31.57,266.39L0.48,324.35L18.91,340.61L24.53,367.33L78.52,388.71L98.73,361.99L105.51,309.83z" transform="translate(0,-6)" stroke-width="5.754722171359592" fill="#55e5e8" fill-opacity="1" stroke="#92193c" stroke-opacity="1" class="amcharts-map-area amcharts-map-area-LR-CM" role="menuitem" aria-label="Grand Cape Mount  " countryId="LR-CM" cursor="pointer"></path>
                    <path cs="100,100" d="M467.77,538.32L470.87,495.09L461.09,477.02L472.66,451.19L456.49,435.44L395.43,443.29L394.56,473.99L357.19,498.93L352.84,571.77L341.3,587.59L402.88,648.47L422.79,618.71L414.77,587.24L454.65,561.71L467.77,538.32z" transform="translate(0,-6)" stroke-width="5.754722171359592" fill="#55e5e8" fill-opacity="1" stroke="#92193c" stroke-opacity="1" class="amcharts-map-area amcharts-map-area-LR-RI" role="menuitem" aria-label="River Cess  " countryId="LR-RI"></path>
                    <path cs="100,100" d="M219.35,355.35L190.16,340.76L179.64,343.66L172.96,366.64L179.3,393.92L170.2,400.19L153.84,391.5L133.08,402.86L131.41,426.14L140.64,425.77L131.16,444.14L164.61,461.64L169.93,446.52L214.12,416.33L208.67,384.11L219.35,355.35z" transform="translate(0,-6)" stroke-width="5.754722171359592" fill="#55e5e8" fill-opacity="1" stroke="#92193c" stroke-opacity="1" class="amcharts-map-area amcharts-map-area-LR-MO" role="menuitem" aria-label="Montserrado  " countryId="LR-MO" cursor="pointer"></path>
                    <path cs="100,100" d="M595.96,609.42L586.39,595.69L611.42,576.59L600.02,553.51L580.34,547.03L565.81,563.25L503.66,529.81L467.77,538.32L454.65,561.71L414.77,587.24L422.79,618.71L402.88,648.47L464.13,695.52L542.62,736.67L572.2,697.98L619.75,668.33L595.96,609.42z" transform="translate(0,-6)" stroke-width="5.754722171359592" fill="#55e5e8" fill-opacity="1" stroke="#92193c" stroke-opacity="1" class="amcharts-map-area amcharts-map-area-LR-SI" role="menuitem" aria-label="Sinoe  " countryId="LR-SI"></path>
                    <path cs="100,100" d="M770.01,828.68L757.23,737.56L733.97,725.03L712.68,728.97L710.11,687L675.31,679.57L661.07,728.65L700.37,750.67L717.55,780.39L710.7,808.53L736.37,826.98L770.01,828.68z" transform="translate(0,-6)" stroke-width="5.754722171359592" fill="#55e5e8" fill-opacity="1" stroke="#92193c" stroke-opacity="1" class="amcharts-map-area amcharts-map-area-LR-MY" role="menuitem" aria-label="Maryland  " countryId="LR-MY"></path>
                    <path cs="100,100" d="M389.42,234.92L415.54,185.77L415.15,162.2L396.98,129.45L401.72,106.08L391.93,105.56L390.53,78.72L381,74.61L387.06,43.4L367.31,30.08L352.23,33.9L357.46,19.42L347.15,14.98L343.46,25.18L333.4,0L326.9,11.22L277.07,27.85L271.32,10.46L233.94,15.5L226.37,75.08L185.64,86.71L168.63,106.81L244.77,131.64L249.85,124.33L268,149.98L299.21,142.66L348.58,163.17L321.72,243.73L325.64,266.75L351.13,267.97L389.42,234.92z" transform="translate(0,-6)" stroke-width="5.754722171359592" fill="#55e5e8" fill-opacity="1" stroke="#92193c" stroke-opacity="1" class="amcharts-map-area amcharts-map-area-LR-LF" role="menuitem" aria-label="Lofa  " countryId="LR-LF" cursor="pointer"></path>
                    <path cs="100,100" d="M463.92,268.48L438.84,233.32L416.38,225.39L405.01,233.97L399,225.39L389.42,234.92L351.13,267.97L325.64,266.75L273.48,299.63L267.23,284.28L250.47,282.1L221.81,311.91L200.47,317.29L197.46,332.65L190.16,340.76L219.35,355.35L310.91,381.94L329.2,349.42L343.09,359.55L338.9,377L370.5,393.55L359.05,419.11L397.28,405.28L420.14,384.16L448.61,382.08L463.24,332.51L447.9,312.46L463.92,268.48z" transform="translate(0,-6)" stroke-width="5.754722171359592" fill="#55e5e8" fill-opacity="1" stroke="#92193c" stroke-opacity="1" class="amcharts-map-area amcharts-map-area-LR-BG" role="menuitem" aria-label="Bong  " countryId="LR-BG"></path>
                </g>
                <g>
                    <g class="amcharts-map-image-container" role="menuitem" aria-label=" " transform="translate(797.37646116735,-292.4485231234698) scale(4)" cursor="pointer">
                        <circle r="0.5" cx="0" cy="0" fill="#f7fffd" stroke="#000000" fill-opacity="0.8" stroke-width="0.01" stroke-opacity="1" transform="translate(0,0) scale(1)" class="amcharts-map-image"></circle>
                        <text y="8" fill="#f7fffd" font-family="Verdana" font-size="15px" opacity="1" text-anchor="middle" class="amcharts-map-image-label" transform="translate(38.8125,-15)" fill-opacity="0.8">
                            <tspan y="8" x="0">Pays: Liberia</tspan>
                        </text>
                    </g>
                    <g class="amcharts-map-image-container" role="menuitem" aria-label=" " transform="translate(2973.377252712344,-812.445824625345) scale(4)" cursor="pointer">
                        <circle r="0.5" cx="0" cy="0" fill="#f7fffd" stroke="#000000" fill-opacity="0.8" stroke-width="0.01" stroke-opacity="1" transform="translate(0,0) scale(1)" class="amcharts-map-image amcharts-selected-object"></circle>
                        <text y="8" fill="#f7fffd" font-family="Verdana" font-size="15px" opacity="1" text-anchor="middle" class="amcharts-map-image-label" transform="translate(14.875,-15)" fill-opacity="0.8">
                            <tspan y="8" x="0">Text...</tspan>
                        </text>
                    </g>
                    <g class="amcharts-map-image-container" role="menuitem" aria-label=" " transform="translate(809.3735651011598,-164.44929430475287) scale(4)" cursor="pointer">
                        <circle r="0.5" cx="0" cy="0" fill="#f7fffd" stroke="#000000" fill-opacity="0.8" stroke-width="0.01" stroke-opacity="1" transform="translate(0,0) scale(1)" class="amcharts-map-image"></circle>
                        <text y="8" fill="#f7fffd" font-family="Verdana" font-size="15px" opacity="1" text-anchor="middle" class="amcharts-map-image-label" transform="translate(78.71875,-15)" fill-opacity="0.8">
                            <tspan y="8" x="0">Président George Weah</tspan>
                        </text>
                    </g>
                    <g class="amcharts-map-image-container" role="menuitem" aria-label=" " transform="translate(809.3735651011598,-20.449293032020922) scale(4)" cursor="pointer">
                        <circle r="0.5" cx="0" cy="0" fill="#f7fffd" stroke="#000000" fill-opacity="0.8" stroke-width="0.01" stroke-opacity="1" transform="translate(0,0) scale(1)" class="amcharts-map-image"></circle>
                        <text y="8" fill="#f7fffd" font-family="Verdana" font-size="15px" opacity="1" text-anchor="middle" class="amcharts-map-image-label" transform="translate(88.9765625,-15)" fill-opacity="0.8">
                            <tspan y="8" x="0">Langues officielles Anglais</tspan>
                        </text>
                    </g>
                    <g class="amcharts-map-image-container" role="menuitem" aria-label=" " transform="translate(841.3751100091897,655.545113676396) scale(4)">
                        <circle r="0.5" cx="0" cy="0" fill="#f7fffd" stroke="#000000" fill-opacity="0.8" stroke-width="0.01" stroke-opacity="1" transform="translate(0,0) scale(1)" class="amcharts-map-image"></circle>
                        <text y="8" fill="#f7fffd" font-family="Verdana" font-size="15px" opacity="1" text-anchor="middle" class="amcharts-map-image-label" transform="translate(101.671875,-15)" fill-opacity="0.8">
                            <tspan y="8" x="0">Monnaie Dollar libérien (LRD​)</tspan>
                        </text>
                    </g>
                    <g class="amcharts-map-image-container" role="menuitem" aria-label=" " transform="translate(813.3772336213651,135.54781217452071) scale(4)" cursor="pointer">
                        <circle r="0.5" cx="0" cy="0" fill="#f7fffd" stroke="#000000" fill-opacity="0.8" stroke-width="0.01" stroke-opacity="1" transform="translate(0,0) scale(1)" class="amcharts-map-image"></circle>
                        <text y="8" fill="#f7fffd" font-family="Verdana" font-size="15px" opacity="1" text-anchor="middle" class="amcharts-map-image-label" transform="translate(57.921875,-15)" fill-opacity="0.8">
                            <tspan y="8" x="0">Capitale Monrovia</tspan>
                        </text>
                    </g>
                    <g class="amcharts-map-image-container" role="menuitem" aria-label=" " transform="translate(-882.6212367433883,1027.545696198737) scale(4)" cursor="pointer">
                        <circle r="0.5" cx="0" cy="0" fill="#f7fffd" stroke="#000000" fill-opacity="0.8" stroke-width="0.01" stroke-opacity="1" transform="translate(0,0) scale(1)" class="amcharts-map-image"></circle>
                        <text y="8" fill="#f7fffd" font-family="Verdana" font-size="15px" opacity="1" text-anchor="middle" class="amcharts-map-image-label" transform="translate(292.875,-15)" fill-opacity="0.8">
                            <tspan y="8" x="0">Copyright © CEDEAO 2020 by Abdoulahi MBENGUE, Seyni Kaire, Khadim CISSE</tspan>
                        </text>
                    </g>
                    <g class="amcharts-map-image-container" role="menuitem" aria-label=" " transform="translate(809.3735651011598,399.5466560389621) scale(4)">
                        <circle r="0.5" cx="0" cy="0" fill="#f7fffd" stroke="#000000" fill-opacity="0.8" stroke-width="0.01" stroke-opacity="1" transform="translate(0,0) scale(1)" class="amcharts-map-image"></circle>
                        <text y="8" fill="#f7fffd" font-family="Verdana" font-size="15px" opacity="1" text-anchor="middle" class="amcharts-map-image-label" transform="translate(142.84375,-15)" fill-opacity="0.8">
                            <tspan y="8" x="0">Population totale (2016) 4 299 944 hab.</tspan>
                        </text>
                    </g>
                    <g class="amcharts-map-image-container" role="menuitem" aria-label=" " transform="translate(837.3714414889845,535.5462710846865) scale(4)" cursor="pointer">
                        <circle r="0.5" cx="0" cy="0" fill="#f7fffd" stroke="#000000" fill-opacity="0.8" stroke-width="0.01" stroke-opacity="1" transform="translate(0,0) scale(1)" class="amcharts-map-image"></circle>
                        <text y="8" fill="#f7fffd" font-family="Verdana" font-size="15px" opacity="1" text-anchor="middle" class="amcharts-map-image-label" transform="translate(162.703125,-15)" fill-opacity="0.8">
                            <tspan y="8" x="0">PIB nominal (2014) 2,03 milliards de dollars1</tspan>
                        </text>
                    </g>
                    <g class="amcharts-map-image-container" role="menuitem" aria-label=" " transform="translate(805.3698965809544,287.54819967426016) scale(4)" cursor="pointer">
                        <circle r="0.5" cx="0" cy="0" fill="#f7fffd" stroke="#000000" fill-opacity="0.8" stroke-width="0.01" stroke-opacity="1" transform="translate(0,0) scale(1)" class="amcharts-map-image"></circle>
                        <text y="8" fill="#f7fffd" font-family="Verdana" font-size="15px" opacity="1" text-anchor="middle" class="amcharts-map-image-label" transform="translate(105,-15)" fill-opacity="0.8">
                            <tspan y="8" x="0">Superficie totale 111 369 km2</tspan>
                        </text>
                    </g>
                </g>
            </g>
        </g>
        <g transform="translate(20,20)">
            <path class="app-brand-logo-white" fill="#000000" d="M5.033,31.105h0.941l3.383,8.306H8.514l-0.819-2.016H3.176l-0.868,2.016H1.465L5.033,31.105zM3.408,36.749h4.055l-1.967-4.801L3.408,36.749z"></path>
            <path class="app-brand-logo-white" fill="#000000" d="M19.117,32.436l-3.493,4.226h-0.196l-3.493-4.226v6.975h-0.83v-8.306h0.757l3.665,4.434l3.651-4.434h0.77v8.306h-0.831V32.436z"></path>
            <path class="app-brand-logo-white" fill="#000000" d="M26.997,37.64c1.026,0,1.747-0.403,2.284-0.819l0.941,1.478c-0.855,0.77-1.955,1.234-3.286,1.234c-2.504,0-4.385-1.845-4.385-4.276c0-2.43,1.881-4.275,4.385-4.275c1.331,0,2.431,0.464,3.286,1.234l-0.941,1.478c-0.537-0.415-1.258-0.818-2.284-0.818c-1.404,0-2.332,1.063-2.332,2.382C24.664,36.578,25.593,37.64,26.997,37.64z"></path>
            <path class="app-brand-logo-white" fill="#000000" d="M38.382,36.101h-3.92v3.31h-2.053v-8.306h2.053v3.212h3.92v-3.212h2.052v8.306h-2.052V36.101z"></path>
            <path class="app-brand-logo-white" fill="#000000" d="M45.455,31.105h2.418l3.139,8.306h-2.076l-0.562-1.527h-3.481l-0.574,1.527h-2.077L45.455,31.105zM45.406,36.382h2.468l-1.209-3.249L45.406,36.382z"></path>
            <path class="app-brand-logo-white" fill="#000000" d="M52.858,31.105h3.945c1.93,0,3.2,0.88,3.2,2.748c0,1.234-0.818,2.162-1.966,2.492l2.418,2.675v0.391h-2.187l-2.528-2.944h-0.83v2.944h-2.052V31.105z M54.91,32.888v2.052h1.857c0.672,0,1.111-0.415,1.111-1.026c0-0.635-0.44-1.026-1.111-1.026H54.91z"></path>
            <path class="app-brand-logo-white" fill="#000000" d="M66.295,32.901v6.511h-2.052v-6.511H61.69v-1.795h7.084v1.795H66.295z"></path>
            <path class="app-brand-logo-white" fill="#000000" d="M70.889,36.944c0.635,0.416,1.588,0.831,2.626,0.831c0.818,0,1.331-0.269,1.331-0.795c0-0.366-0.269-0.586-0.94-0.757l-1.355-0.367c-1.43-0.378-2.114-1.136-2.114-2.308c0-1.418,1.087-2.553,3.322-2.553c1.185,0,2.345,0.33,2.993,0.659l-0.574,1.772c-0.647-0.367-1.649-0.672-2.504-0.672c-0.806,0-1.149,0.257-1.149,0.66c0,0.366,0.245,0.513,0.757,0.659l1.478,0.428c1.526,0.439,2.186,1.184,2.186,2.333c0,1.6-1.405,2.699-3.482,2.699c-1.221,0-2.504-0.416-3.053-0.721L70.889,36.944z"></path>
            <path class="app-brand-logo-white" fill="#000000" d="M68.607,20.635c-11.025-0.002-20.827-0.004-20.827-0.004l0,0h-0.001c-6.516,0-9.003-4.935-11.637-10.16C33.664,5.553,31.101,0.466,24.983,0.466c-6.116,0-8.68,5.086-11.159,10.005c-2.633,5.225-5.121,10.16-11.637,10.16l-0.1,0.021c-0.858,0.001-1.554,0.699-1.553,1.558c0.001,0.858,0.697,1.553,1.556,1.553h0.001c0.096,0,0.082-0.02,0.096-0.02c8.433,0,11.75-6.583,14.416-11.871c2.243-4.45,4.181-8.295,8.38-8.295c4.2,0,6.138,3.843,8.381,8.295c2.665,5.288,5.982,11.869,14.414,11.871l0,0c0,0,15.624,0.005,29.88,0.005v-0.005C74.371,23.744,71.319,22.668,68.607,20.635z"></path>
            <path fill="none" stroke="#5DC7CE" stroke-width="4" stroke-linejoin="round" stroke-miterlimit="10" d="M-3.898,22.214"></path>
            <path fill="#1FA3DD" d="M78,20.632h-0.34c-7.295,0-11.593-6.37-13.915-11.714c-0.634-1.459-2.431-4.912-5.418-5.437c-1.08-0.189-2.724-0.046-4.403,1.725c-0.66,0.697-1.174,1.559-1.67,2.392c-1.073,1.801-1.695,2.642-2.672,2.578c-1.162-0.075-1.823-1.083-2.803-2.72c-0.579-0.966-1.177-1.965-2.022-2.743c-0.868-0.798-2.114-1.199-3.416-1.09c-1.345,0.109-2.55,0.722-3.305,1.685c-0.927,1.181-1.485,2.496-2.025,3.77c-0.089,0.21-0.177,0.409-0.265,0.612c0.134,0.261,0.266,0.523,0.397,0.785c0.451,0.894,0.898,1.778,1.361,2.632c0.114-0.201,0.24-0.398,0.349-0.6c0.393-0.731,0.713-1.484,1.022-2.212c0.482-1.136,0.937-2.209,1.609-3.065c0.211-0.269,0.646-0.466,1.108-0.504c0.425-0.037,0.833,0.071,1.058,0.278c0.514,0.473,0.973,1.24,1.459,2.052c1.079,1.801,2.421,4.042,5.271,4.227c3.01,0.187,4.469-2.281,5.547-4.09c0.428-0.719,0.833-1.397,1.256-1.844c0.88-0.928,1.427-0.833,1.605-0.801c0.979,0.172,2.255,1.658,3.104,3.612c3.805,8.761,9.761,13.586,16.769,13.586H78c0.859,0,1.556-0.697,1.556-1.556C79.555,21.328,78.859,20.632,78,20.632z M30.888,16.92c-2.452,2.683-5.12,3.728-9.512,3.728H10.661c-2.101,1.846-4.801,3.095-8.474,3.095H2.023c0.055,0.006,0.108,0.017,0.122,0.02h19.187c5.283-0.003,8.814-1.421,11.852-4.743c0.879-0.962,1.684-1.957,2.426-2.974c-0.612-1.01-1.162-2.044-1.679-3.054C33.05,14.343,32.039,15.661,30.888,16.92z"></path>
        </g>
    </svg>