<?xml version="1.0" encoding="UTF-8" standalone="no" ?>
    <!DOCTYPE svg PUBLIC "-//W3C//DTD SVG 1.1//EN" "http://www.w3.org/Graphics/SVG/1.1/DTD/svg11.dtd">
    <svg version="1.1" xmlns="http://www.w3.org/2000/svg" xmlns:xlink="http://www.w3.org/1999/xlink" width="1366" height="625" xml:space="preserve">
        <desc>JavaScript chart by amCharts 3.21.15</desc>
        <desc>This map was created using Pixel Map Generator by amCharts and is licensed under the Creative Commons Attribution 4.0 International License. You may use this map the way you see fit as long as proper attribution to the name of amCharts is given in the form of link to http://pixelmap.amcharts.com/ To view a copy of this license, visit http://creativecommons.org/licenses/by/4.0/ If you would like to use this map without any attribution, you can acquire a commercial license for the JavaScript Maps - a tool that was used to produce this map. To do so, visit amCharts Online Store: http://www.amcharts.com/online-store/</desc>
        <g>
            <path cs="100,100" d="M0.5,0.5 L1365.5,0.5 L1365.5,624.5 L0.5,624.5 Z" fill="#924f19" stroke="#000000" fill-opacity="1" stroke-width="1" stroke-opacity="1" class="amcharts-bg"></path>
        </g>
        <g>
            <g transform="translate(608.7639683100864,235.91163391418542) scale(0.25)">
                <g transform="translate(0,0) scale(0.7432336163984046)">
                    <path cs="100,100" d="M710.81,738.67L698.86,740.53L719.35,744.05L710.81,738.67zM732.38,648.57L712.54,591.89L678.24,653.57L682.4,724.9L664.56,735.39L694.18,740.29L713.71,707.62L716.8,737.36L765.5,734.9L763.02,677.91L738.98,674.44L732.38,648.57z" transform="translate(0,-8)" stroke-width="5.381887890625" fill="#efe5e5" fill-opacity="1" stroke="#924f19" stroke-opacity="1" class="amcharts-map-area amcharts-map-area-CI-SC" role="menuitem" aria-label="Sud-Comoé  " countryId="CI-SC"></path>
                    <path cs="100,100" d="M377.68,427.93L369.51,395.07L328.99,411.62L284.54,459.55L351.72,471.34L314.52,495.31L337.48,556.35L376.81,560.44L419.49,540.51L403.29,506.76L408.96,475.3L386.98,459.27L377.68,427.93z" transform="translate(0,-8)" stroke-width="5.381887890625" fill="#efe5e5" fill-opacity="1" stroke="#924f19" stroke-opacity="1" class="amcharts-map-area amcharts-map-area-CI-MR" role="menuitem" aria-label="Marahoué  " countryId="CI-MR"></path>
                    <path cs="100,100" d="M655.07,577.91L646.07,541L633.69,542.22L591.5,561.98L585.1,593.9L543.74,595.25L518.1,643.35L559.84,676.92L613.25,674.42L639.19,637.1L673.85,646.05L683.27,603.3L655.07,577.91z" transform="translate(0,-8)" stroke-width="5.381887890625" fill="#efe5e5" fill-opacity="1" stroke="#924f19" stroke-opacity="1" class="amcharts-map-area amcharts-map-area-CI-AG" role="menuitem" aria-label="Agnéby  " countryId="CI-AG"></path>
                    <path cs="100,100" d="M507.36,425.49L485.83,422.52L435.81,462L386.98,459.27L408.96,475.3L403.29,506.76L419.49,540.51L445.39,576.47L477.03,593.64L512.55,587.62L507.5,545.64L484.48,546.43L477.25,526.28L499.21,508.61L517.85,425.1L507.36,425.49z" transform="translate(0,-8)" stroke-width="5.381887890625" fill="#efe5e5" fill-opacity="1" stroke="#924f19" stroke-opacity="1" class="amcharts-map-area amcharts-map-area-CI-LC" role="menuitem" aria-label="Lacs  " countryId="CI-LC"></path>
                    <path cs="100,100" d="M431.12,730.99L431.12,730.99L416.58,721.93L417.54,743.06L473.22,739.15L419.43,733.68L431.12,730.99zM477.03,593.64L445.39,576.47L441.59,596.02L472.52,610.13L481.68,651.55L462.02,725.65L442.94,726.76L487.57,739.15L604.82,725.63L498.56,732.35L516.23,714.87L514.43,725.63L616.51,710.3L637.73,720.07L629.76,706.68L639.71,721.05L604.01,721.05L664.56,735.39L682.4,724.9L678.24,653.57L673.85,646.05L639.19,637.1L613.25,674.42L559.84,676.92L518.1,643.35L543.74,595.25L512.55,587.62L477.03,593.64z" transform="translate(0,-8)" stroke-width="5.381887890625" fill="#efe5e5" fill-opacity="1" stroke="#924f19" stroke-opacity="1" class="amcharts-map-area amcharts-map-area-CI-LG" role="menuitem" aria-label="Lagunes  " countryId="CI-LG"></path>
                    <path cs="100,100" d="M449.02,190.12L429.34,178.13L408.73,217.18L413.5,245.21L382.43,251.06L393.74,291.36L428.37,336.72L376.81,361.21L369.51,395.07L377.68,427.93L386.98,459.27L435.81,462L485.83,422.52L507.36,425.49L517.85,425.1L536.69,414.18L535.35,387.7L602.94,357.53L613.19,280.17L575.89,276.5L534.75,241.66L481.9,241.14L488.61,214.31L471.03,190.25L449.02,190.12z" transform="translate(0,-8)" stroke-width="5.381887890625" fill="#efe5e5" fill-opacity="1" stroke="#924f19" stroke-opacity="1" class="amcharts-map-area amcharts-map-area-CI-VB" role="menuitem" aria-label="Vallée du Bandama  " countryId="CI-VB" cursor="pointer"></path>
                    <path cs="100,100" d="M155.69,52.22L148.05,35.96L125.23,38.48L58.63,104.26L62.36,163.24L98.27,173.65L90.57,204.75L114.27,219.11L187.71,292.1L181.66,236.63L224.19,236.67L245.21,213.49L246.96,116.39L218.95,101.82L228.66,80.33L266.53,74.35L255.45,47.96L217.15,50.74L210.02,77.84L155.69,52.22z" transform="translate(0,-8)" stroke-width="5.381887890625" fill="#efe5e5" fill-opacity="1" stroke="#924f19" stroke-opacity="1" class="amcharts-map-area amcharts-map-area-CI-DE" role="menuitem" aria-label="Denguélé  " countryId="CI-DE"></path>
                    <path cs="100,100" d="M282.83,395.45L202.72,398.29L214.36,418.1L203.88,502.41L212.42,551.33L234.51,592.27L290.53,584.63L329.93,575.57L337.48,556.35L314.52,495.31L351.72,471.34L284.54,459.55L328.99,411.62L310.28,390.74L282.83,395.45z" transform="translate(0,-8)" stroke-width="5.381887890625" fill="#efe5e5" fill-opacity="1" stroke="#924f19" stroke-opacity="1" class="amcharts-map-area amcharts-map-area-CI-HT" role="menuitem" aria-label="Haut-Sassandra  " countryId="CI-HT"></path>
                    <path cs="100,100" d="M419.49,540.51L376.81,560.44L337.48,556.35L329.93,575.57L290.53,584.63L307.42,642L336.06,666.99L378.26,598.91L441.59,596.02L445.39,576.47L419.49,540.51z" transform="translate(0,-8)" stroke-width="5.381887890625" fill="#efe5e5" fill-opacity="1" stroke="#924f19" stroke-opacity="1" class="amcharts-map-area amcharts-map-area-CI-FR" role="menuitem" aria-label="Fromager  " countryId="CI-FR"></path>
                    <path cs="100,100" d="M141.4,840.92L361.28,752.4L376.28,719.82L365.19,682.58L346.79,688.45L336.06,666.99L307.42,642L290.53,584.63L234.51,592.27L212.42,551.33L196.99,564.27L199.79,665.36L157.45,673.61L161.13,714.41L132.93,769.49L141.4,840.92z" transform="translate(0,-8)" stroke-width="5.381887890625" fill="#efe5e5" fill-opacity="1" stroke="#924f19" stroke-opacity="1" class="amcharts-map-area amcharts-map-area-CI-BS" role="menuitem" aria-label="Bas-Sassandra  " countryId="CI-BS"></path>
                    <path cs="100,100" d="M441.59,596.02L378.26,598.91L336.06,666.99L346.79,688.45L365.19,682.58L376.28,719.82L361.28,752.4L417.54,743.06L416.58,721.93L431.12,730.99L442.94,726.76L462.02,725.65L481.68,651.55L472.52,610.13L441.59,596.02z" transform="translate(0,-8)" stroke-width="5.381887890625" fill="#efe5e5" fill-opacity="1" stroke="#924f19" stroke-opacity="1" class="amcharts-map-area amcharts-map-area-CI-SB" role="menuitem" aria-label="Sud-Bandama  " countryId="CI-SB"></path>
                    <path cs="100,100" d="M187.71,292.1L114.27,219.11L90.27,229.55L85.42,253.86L120.99,278.72L125.48,311.76L85.21,295.63L48.1,302.29L46.59,328.79L80.93,336.97L85.85,357.72L124.69,382.02L145.33,374L153.3,339.25L184.64,362.77L201.13,362.69L187.71,292.1z" transform="translate(0,-8)" stroke-width="5.381887890625" fill="#efe5e5" fill-opacity="1" stroke="#924f19" stroke-opacity="1" class="amcharts-map-area amcharts-map-area-CI-BF" role="menuitem" aria-label="Bafing  " countryId="CI-BF"></path>
                    <path cs="100,100" d="M672.39,447.93L665.04,448.6L650.61,469.73L660.48,483.66L633.65,495.89L633.69,542.22L646.07,541L655.07,577.91L683.27,603.3L673.85,646.05L678.24,653.57L712.54,591.89L700.85,541.32L722.36,485.95L672.39,447.93z" transform="translate(0,-8)" stroke-width="5.381887890625" fill="#efe5e5" fill-opacity="1" stroke="#924f19" stroke-opacity="1" class="amcharts-map-area amcharts-map-area-CI-MC" role="menuitem" aria-label="Moyen-Comoe  " countryId="CI-MC"></path>
                    <path cs="100,100" d="M184.64,362.77L153.3,339.25L145.33,374L124.69,382.02L85.85,357.72L72.33,357.41L51.42,421.4L17.9,419.59L44.22,490.77L23.62,538.51L44.52,545.35L82.71,497.29L107.15,513.95L203.88,502.41L214.36,418.1L202.72,398.29L201.13,362.69L184.64,362.77z" transform="translate(0,-8)" stroke-width="5.381887890625" fill="#efe5e5" fill-opacity="1" stroke="#924f19" stroke-opacity="1" class="amcharts-map-area amcharts-map-area-CI-DH" role="menuitem" aria-label="Dix-Huit Montagnes  " countryId="CI-DH" cursor="pointer"></path>
                    <path cs="100,100" d="M304.97,201.85L282.64,219.1L245.21,213.49L224.19,236.67L181.66,236.63L187.71,292.1L201.13,362.69L202.72,398.29L282.83,395.45L310.28,390.74L328.99,411.62L369.51,395.07L376.81,361.21L428.37,336.72L393.74,291.36L348.52,276.64L304.97,201.85z" transform="translate(0,-8)" stroke-width="5.381887890625" fill="#efe5e5" fill-opacity="1" stroke="#924f19" stroke-opacity="1" class="amcharts-map-area amcharts-map-area-CI-WR" role="menuitem" aria-label="Worodougou  " countryId="CI-WR" cursor="pointer"></path>
                    <path cs="100,100" d="M655.73,107.4L584.62,120.66L562.11,148.42L581.11,197.67L618.17,207.18L630,228.11L617.64,236.2L631.56,258.68L613.19,280.17L602.94,357.53L602.97,365.65L659.34,415.75L665.04,448.6L672.39,447.93L722.36,485.95L762.36,368.76L799.52,333.64L784.74,239.2L764.42,221.81L777.39,166.61L759.77,174.65L706.91,107.74L655.73,107.4z" transform="translate(0,-8)" stroke-width="5.381887890625" fill="#efe5e5" fill-opacity="1" stroke="#924f19" stroke-opacity="1" class="amcharts-map-area amcharts-map-area-CI-ZA" role="menuitem" aria-label="Zanzan  " countryId="CI-ZA"></path>
                    <path cs="100,100" d="M309.35,0L286.99,5.37L284.51,23.17L255.33,9.62L255.45,47.96L266.53,74.35L228.66,80.33L218.95,101.82L246.96,116.39L245.21,213.49L282.64,219.1L304.97,201.85L348.52,276.64L393.74,291.36L382.43,251.06L413.5,245.21L408.73,217.18L429.34,178.13L449.02,190.12L471.03,190.25L488.61,214.31L481.9,241.14L534.75,241.66L575.89,276.5L613.19,280.17L631.56,258.68L617.64,236.2L630,228.11L618.17,207.18L581.11,197.67L562.11,148.42L481.82,113.27L455.8,56.14L420.91,56.63L395.88,36.25L329.04,71.41L311.44,63.09L309.34,28.58L309.35,0z" transform="translate(0,-8)" stroke-width="5.381887890625" fill="#efe5e5" fill-opacity="1" stroke="#924f19" stroke-opacity="1" class="amcharts-map-area amcharts-map-area-CI-SV" role="menuitem" aria-label="Savanes  " countryId="CI-SV"></path>
                    <path cs="100,100" d="M107.15,513.95L82.71,497.29L44.52,545.35L23.62,538.51L0.48,559.89L26.68,565.37L27.52,579.99L92.55,588.97L109.25,630.2L153.71,644.95L157.45,673.61L199.79,665.36L196.99,564.27L212.42,551.33L203.88,502.41L107.15,513.95z" transform="translate(0,-8)" stroke-width="5.381887890625" fill="#efe5e5" fill-opacity="1" stroke="#924f19" stroke-opacity="1" class="amcharts-map-area amcharts-map-area-CI-MV" role="menuitem" aria-label="Moyen-Cavally  " countryId="CI-MV"></path>
                    <path cs="100,100" d="M602.97,365.65L602.94,357.53L535.35,387.7L536.69,414.18L517.85,425.1L499.21,508.61L477.25,526.28L484.48,546.43L507.5,545.64L512.55,587.62L543.74,595.25L585.1,593.9L591.5,561.98L633.69,542.22L633.65,495.89L660.48,483.66L650.61,469.73L665.04,448.6L659.34,415.75L602.97,365.65z" transform="translate(0,-8)" stroke-width="5.381887890625" fill="#efe5e5" fill-opacity="1" stroke="#924f19" stroke-opacity="1" class="amcharts-map-area amcharts-map-area-CI-NC" role="menuitem" aria-label="N'zi-Comoé  " countryId="CI-NC"></path>
                </g>
                <g>
                    <g class="amcharts-map-image-container" role="menuitem" aria-label=" " transform="translate(930.2683559650632,-540.1970570706884) scale(4)">
                        <circle r="0.5" cx="0" cy="0" fill="#f7fffd" stroke="#000000" fill-opacity="0.8" stroke-width="0.01" stroke-opacity="1" transform="translate(0,0) scale(1)" class="amcharts-map-image"></circle>
                        <text y="8" fill="#f7fffd" font-family="Verdana" font-size="15px" opacity="1" text-anchor="middle" class="amcharts-map-image-label" transform="translate(60.953125,-15)" fill-opacity="0.8">
                            <tspan y="8" x="0">Pays: Cote d'ivoire</tspan>
                        </text>
                    </g>
                    <g class="amcharts-map-image-container" role="menuitem" aria-label=" " transform="translate(995.3756207615634,201.9811675924304) scale(4)">
                        <circle r="0.5" cx="0" cy="0" fill="#f7fffd" stroke="#000000" fill-opacity="0.8" stroke-width="0.01" stroke-opacity="1" transform="translate(0,0) scale(1)" class="amcharts-map-image"></circle>
                        <text y="8" fill="#f7fffd" font-family="Verdana" font-size="15px" opacity="1" text-anchor="middle" class="amcharts-map-image-label" transform="translate(147.609375,-15)" fill-opacity="0.8">
                            <tspan y="8" x="0">Population totale (2020) 27 481 086 hab.</tspan>
                        </text>
                    </g>
                    <g class="amcharts-map-image-container" role="menuitem" aria-label=" " transform="translate(-1183.763045510067,1419.940391792988) scale(4)" cursor="pointer">
                        <circle r="0.5" cx="0" cy="0" fill="#f7fffd" stroke="#000000" fill-opacity="0.8" stroke-width="0.01" stroke-opacity="1" transform="translate(0,0) scale(1)" class="amcharts-map-image"></circle>
                        <text y="8" fill="#f7fffd" font-family="Verdana" font-size="15px" opacity="1" text-anchor="middle" class="amcharts-map-image-label" transform="translate(292.875,-15)" fill-opacity="0.8">
                            <tspan y="8" x="0">Copyright © CEDEAO 2020 by Abdoulahi MBENGUE, Seyni Kaire, Khadim CISSE</tspan>
                        </text>
                    </g>
                    <g class="amcharts-map-image-container" role="menuitem" aria-label=" " transform="translate(1004.0565894010967,37.050195777460466) scale(4)">
                        <circle r="0.5" cx="0" cy="0" fill="#f7fffd" stroke="#000000" fill-opacity="0.8" stroke-width="0.01" stroke-opacity="1" transform="translate(0,0) scale(1)" class="amcharts-map-image"></circle>
                        <text y="8" fill="#f7fffd" font-family="Verdana" font-size="15px" opacity="1" text-anchor="middle" class="amcharts-map-image-label" transform="translate(105,-15)" fill-opacity="0.8">
                            <tspan y="8" x="0">Superficie totale 322 462 km2</tspan>
                        </text>
                    </g>
                    <g class="amcharts-map-image-container" role="menuitem" aria-label=" " transform="translate(1060.4754532218994,536.183595542137) scale(4)">
                        <circle r="0.5" cx="0" cy="0" fill="#f7fffd" stroke="#000000" fill-opacity="0.8" stroke-width="0.01" stroke-opacity="1" transform="translate(0,0) scale(1)" class="amcharts-map-image"></circle>
                        <text y="8" fill="#f7fffd" font-family="Verdana" font-size="15px" opacity="1" text-anchor="middle" class="amcharts-map-image-label" transform="translate(171.5625,-15)" fill-opacity="0.8">
                            <tspan y="8" x="0">PIB (PPA) (2018) 93,584 milliards de dollars US</tspan>
                        </text>
                    </g>
                    <g class="amcharts-map-image-container" role="menuitem" aria-label=" " transform="translate(-2663.4817170699785,-904.7903075949257) scale(4)">
                        <circle r="0.5" cx="0" cy="0" fill="#f7fffd" stroke="#000000" fill-opacity="0.8" stroke-width="0.01" stroke-opacity="1" transform="translate(0,0) scale(1)" class="amcharts-map-image"></circle>
                        <text y="8" fill="#f7fffd" font-family="Verdana" font-size="15px" opacity="1" text-anchor="middle" class="amcharts-map-image-label" transform="translate(14.875,-15)" fill-opacity="0.8">
                            <tspan y="8" x="0">Text...</tspan>
                        </text>
                    </g>
                    <g class="amcharts-map-image-container" role="menuitem" aria-label=" " transform="translate(930.2683559650632,-396.97593919071585) scale(4)">
                        <circle r="0.5" cx="0" cy="0" fill="#f7fffd" stroke="#000000" fill-opacity="0.8" stroke-width="0.01" stroke-opacity="1" transform="translate(0,0) scale(1)" class="amcharts-map-image"></circle>
                        <text y="8" fill="#f7fffd" font-family="Verdana" font-size="15px" opacity="1" text-anchor="middle" class="amcharts-map-image-label" transform="translate(162.53125,-15)" fill-opacity="0.8">
                            <tspan y="8" x="0">Président de la République Alassane Ouattara</tspan>
                        </text>
                    </g>
                    <g class="amcharts-map-image-container" role="menuitem" aria-label=" " transform="translate(951.9707775638964,-266.76884193387934) scale(4)">
                        <circle r="0.5" cx="0" cy="0" fill="#f7fffd" stroke="#000000" fill-opacity="0.8" stroke-width="0.01" stroke-opacity="1" transform="translate(0,0) scale(1)" class="amcharts-map-image"></circle>
                        <text y="8" fill="#f7fffd" font-family="Verdana" font-size="15px" opacity="1" text-anchor="middle" class="amcharts-map-image-label" transform="translate(92.90625,-15)" fill-opacity="0.8">
                            <tspan y="8" x="0">Langues officielles Français</tspan>
                        </text>
                    </g>
                    <g class="amcharts-map-image-container" role="menuitem" aria-label=" " transform="translate(944.5904677530604,-119.85385298040671) scale(4)">
                        <circle r="0.5" cx="0" cy="0" fill="#f7fffd" stroke="#000000" fill-opacity="0.8" stroke-width="0.01" stroke-opacity="1" transform="translate(0,0) scale(1)" class="amcharts-map-image"></circle>
                        <text y="8" fill="#f7fffd" font-family="Verdana" font-size="15px" opacity="1" text-anchor="middle" class="amcharts-map-image-label" transform="translate(209.203125,-15)" fill-opacity="0.8">
                            <tspan y="8" x="0">Capitale:Yamoussoukro (politique), Abidjan (économique)</tspan>
                        </text>
                    </g>
                    <g class="amcharts-map-image-container" role="menuitem" aria-label=" " transform="translate(3024.5892019333073,-867.8515968599252) scale(4)">
                        <circle r="0.5" cx="0" cy="0" fill="#f7fffd" stroke="#000000" fill-opacity="0.8" stroke-width="0.01" stroke-opacity="1" transform="translate(0,0) scale(1)" class="amcharts-map-image"></circle>
                        <text y="8" fill="#f7fffd" font-family="Verdana" font-size="15px" opacity="1" text-anchor="middle" class="amcharts-map-image-label" transform="translate(208.4375,-15)" fill-opacity="0.8">
                            <tspan y="8" x="0">Capitale Yamoussoukro (politique), Abidjan (économique)</tspan>
                        </text>
                    </g>
                    <g class="amcharts-map-image-container" role="menuitem" aria-label=" " transform="translate(1095.199327780033,714.1360203164071) scale(4)">
                        <circle r="0.5" cx="0" cy="0" fill="#f7fffd" stroke="#000000" fill-opacity="0.8" stroke-width="0.01" stroke-opacity="1" transform="translate(0,0) scale(1)" class="amcharts-map-image"></circle>
                        <text y="8" fill="#f7fffd" font-family="Verdana" font-size="15px" opacity="1" text-anchor="middle" class="amcharts-map-image-label" transform="translate(99.046875,-15)" fill-opacity="0.8">
                            <tspan y="8" x="0">Monnaie Franc CFA (UEMOA)</tspan>
                        </text>
                    </g>
                    <g class="amcharts-map-image-container" role="menuitem" aria-label=" " transform="translate(1021.4185266801634,379.93359236670045) scale(4)">
                        <circle r="0.5" cx="0" cy="0" fill="#f7fffd" stroke="#000000" fill-opacity="0.8" stroke-width="0.01" stroke-opacity="1" transform="translate(0,0) scale(1)" class="amcharts-map-image"></circle>
                        <text y="8" fill="#f7fffd" font-family="Verdana" font-size="15px" opacity="1" text-anchor="middle" class="amcharts-map-image-label" transform="translate(180.71875,-15)" fill-opacity="0.8">
                            <tspan y="8" x="0">PIB nominal (2018) 43,007 milliards de dollars US</tspan>
                        </text>
                    </g>
                </g>
            </g>
        </g>
        <g transform="translate(20,20)">
            <path class="app-brand-logo-white" fill="#000000" d="M5.033,31.105h0.941l3.383,8.306H8.514l-0.819-2.016H3.176l-0.868,2.016H1.465L5.033,31.105zM3.408,36.749h4.055l-1.967-4.801L3.408,36.749z"></path>
            <path class="app-brand-logo-white" fill="#000000" d="M19.117,32.436l-3.493,4.226h-0.196l-3.493-4.226v6.975h-0.83v-8.306h0.757l3.665,4.434l3.651-4.434h0.77v8.306h-0.831V32.436z"></path>
            <path class="app-brand-logo-white" fill="#000000" d="M26.997,37.64c1.026,0,1.747-0.403,2.284-0.819l0.941,1.478c-0.855,0.77-1.955,1.234-3.286,1.234c-2.504,0-4.385-1.845-4.385-4.276c0-2.43,1.881-4.275,4.385-4.275c1.331,0,2.431,0.464,3.286,1.234l-0.941,1.478c-0.537-0.415-1.258-0.818-2.284-0.818c-1.404,0-2.332,1.063-2.332,2.382C24.664,36.578,25.593,37.64,26.997,37.64z"></path>
            <path class="app-brand-logo-white" fill="#000000" d="M38.382,36.101h-3.92v3.31h-2.053v-8.306h2.053v3.212h3.92v-3.212h2.052v8.306h-2.052V36.101z"></path>
            <path class="app-brand-logo-white" fill="#000000" d="M45.455,31.105h2.418l3.139,8.306h-2.076l-0.562-1.527h-3.481l-0.574,1.527h-2.077L45.455,31.105zM45.406,36.382h2.468l-1.209-3.249L45.406,36.382z"></path>
            <path class="app-brand-logo-white" fill="#000000" d="M52.858,31.105h3.945c1.93,0,3.2,0.88,3.2,2.748c0,1.234-0.818,2.162-1.966,2.492l2.418,2.675v0.391h-2.187l-2.528-2.944h-0.83v2.944h-2.052V31.105z M54.91,32.888v2.052h1.857c0.672,0,1.111-0.415,1.111-1.026c0-0.635-0.44-1.026-1.111-1.026H54.91z"></path>
            <path class="app-brand-logo-white" fill="#000000" d="M66.295,32.901v6.511h-2.052v-6.511H61.69v-1.795h7.084v1.795H66.295z"></path>
            <path class="app-brand-logo-white" fill="#000000" d="M70.889,36.944c0.635,0.416,1.588,0.831,2.626,0.831c0.818,0,1.331-0.269,1.331-0.795c0-0.366-0.269-0.586-0.94-0.757l-1.355-0.367c-1.43-0.378-2.114-1.136-2.114-2.308c0-1.418,1.087-2.553,3.322-2.553c1.185,0,2.345,0.33,2.993,0.659l-0.574,1.772c-0.647-0.367-1.649-0.672-2.504-0.672c-0.806,0-1.149,0.257-1.149,0.66c0,0.366,0.245,0.513,0.757,0.659l1.478,0.428c1.526,0.439,2.186,1.184,2.186,2.333c0,1.6-1.405,2.699-3.482,2.699c-1.221,0-2.504-0.416-3.053-0.721L70.889,36.944z"></path>
            <path class="app-brand-logo-white" fill="#000000" d="M68.607,20.635c-11.025-0.002-20.827-0.004-20.827-0.004l0,0h-0.001c-6.516,0-9.003-4.935-11.637-10.16C33.664,5.553,31.101,0.466,24.983,0.466c-6.116,0-8.68,5.086-11.159,10.005c-2.633,5.225-5.121,10.16-11.637,10.16l-0.1,0.021c-0.858,0.001-1.554,0.699-1.553,1.558c0.001,0.858,0.697,1.553,1.556,1.553h0.001c0.096,0,0.082-0.02,0.096-0.02c8.433,0,11.75-6.583,14.416-11.871c2.243-4.45,4.181-8.295,8.38-8.295c4.2,0,6.138,3.843,8.381,8.295c2.665,5.288,5.982,11.869,14.414,11.871l0,0c0,0,15.624,0.005,29.88,0.005v-0.005C74.371,23.744,71.319,22.668,68.607,20.635z"></path>
            <path fill="none" stroke="#5DC7CE" stroke-width="4" stroke-linejoin="round" stroke-miterlimit="10" d="M-3.898,22.214"></path>
            <path fill="#1FA3DD" d="M78,20.632h-0.34c-7.295,0-11.593-6.37-13.915-11.714c-0.634-1.459-2.431-4.912-5.418-5.437c-1.08-0.189-2.724-0.046-4.403,1.725c-0.66,0.697-1.174,1.559-1.67,2.392c-1.073,1.801-1.695,2.642-2.672,2.578c-1.162-0.075-1.823-1.083-2.803-2.72c-0.579-0.966-1.177-1.965-2.022-2.743c-0.868-0.798-2.114-1.199-3.416-1.09c-1.345,0.109-2.55,0.722-3.305,1.685c-0.927,1.181-1.485,2.496-2.025,3.77c-0.089,0.21-0.177,0.409-0.265,0.612c0.134,0.261,0.266,0.523,0.397,0.785c0.451,0.894,0.898,1.778,1.361,2.632c0.114-0.201,0.24-0.398,0.349-0.6c0.393-0.731,0.713-1.484,1.022-2.212c0.482-1.136,0.937-2.209,1.609-3.065c0.211-0.269,0.646-0.466,1.108-0.504c0.425-0.037,0.833,0.071,1.058,0.278c0.514,0.473,0.973,1.24,1.459,2.052c1.079,1.801,2.421,4.042,5.271,4.227c3.01,0.187,4.469-2.281,5.547-4.09c0.428-0.719,0.833-1.397,1.256-1.844c0.88-0.928,1.427-0.833,1.605-0.801c0.979,0.172,2.255,1.658,3.104,3.612c3.805,8.761,9.761,13.586,16.769,13.586H78c0.859,0,1.556-0.697,1.556-1.556C79.555,21.328,78.859,20.632,78,20.632z M30.888,16.92c-2.452,2.683-5.12,3.728-9.512,3.728H10.661c-2.101,1.846-4.801,3.095-8.474,3.095H2.023c0.055,0.006,0.108,0.017,0.122,0.02h19.187c5.283-0.003,8.814-1.421,11.852-4.743c0.879-0.962,1.684-1.957,2.426-2.974c-0.612-1.01-1.162-2.044-1.679-3.054C33.05,14.343,32.039,15.661,30.888,16.92z"></path>
        </g>
    </svg>