<?xml version="1.0" encoding="UTF-8" standalone="no" ?>
    <!DOCTYPE svg PUBLIC "-//W3C//DTD SVG 1.1//EN" "http://www.w3.org/Graphics/SVG/1.1/DTD/svg11.dtd">
    <svg version="1.1" xmlns="http://www.w3.org/2000/svg" xmlns:xlink="http://www.w3.org/1999/xlink" width="1366" height="576" xml:space="preserve">
       
        <g>
            <path cs="100,100" d="M0.5,0.5 L1365.5,0.5 L1365.5,575.5 L0.5,575.5 Z" fill="#505050" stroke="#000000" fill-opacity="0.22" stroke-width="1" stroke-opacity="1" class="amcharts-bg"></path>
        </g>
        <g>
            <g transform="translate(591.1784430450765,223.9828823543686) scale(0.25)">
                <g transform="translate(0,0) scale(0.9196870688594105)">
                    <path cs="100,100" d="M176.88,626.3L176.78,584.84L199.16,560.61L201.03,535.87L226.29,522.87L207.49,474.16L171.05,517.01L152.96,518.98L135.74,546.23L117.92,552.03L130.47,562.76L124.16,568.42L125.55,585.51L136.3,591.52L176.88,626.3z" transform="translate(-1,-35)" stroke-width="4.349305470784505" fill="#32a9de" fill-opacity="1" stroke="#505050" stroke-opacity="0.22" class="amcharts-map-area amcharts-map-area-NE-3" role="menuitem" aria-label="Dosso  " countryId="NE-3"></path>
                    <path cs="100,100" d="M530.5,541.25L538.96,518.52L559.47,499.49L597.87,485.55L598.67,324.71L463.46,403.86L415.71,425.52L368.69,424.98L362.61,438.78L382.36,484.42L397.34,481.16L422.96,502.71L423.76,513.62L407.62,523.42L412.8,528.8L409.2,549.46L431.06,564.38L477.07,570.71L503.82,547.44L530.5,541.25z" transform="translate(-1,-35)" stroke-width="4.349305470784505" fill="#32a9de" fill-opacity="1" stroke="#505050" stroke-opacity="0.22" class="amcharts-map-area amcharts-map-area-NE-7" role="menuitem" aria-label="Zinder  " countryId="NE-7"></path>
                    <path cs="100,100" d="M362.61,438.78L329.74,433.86L322.06,505.39L310.06,525.75L343.05,560.65L386.11,542.67L409.2,549.46L412.8,528.8L407.62,523.42L423.76,513.62L422.96,502.71L397.34,481.16L382.36,484.42L362.61,438.78z" transform="translate(-1,-35)" stroke-width="4.349305470784505" fill="#32a9de" fill-opacity="1" stroke="#505050" stroke-opacity="0.22" class="amcharts-map-area amcharts-map-area-NE-4" role="menuitem" aria-label="Maradi  " countryId="NE-4"></path>
                    <path cs="100,100" d="M207.49,474.16L188.3,418.52L169.78,437.76L59.88,441.44L40.57,457.36L3.38,457.05L0.64,482.61L12.4,495.65L15.28,513.17L22.64,524.65L56.7,542.46L42.3,541.3L42.3,558.74L71.61,579.47L99.15,575.67L106.02,590.24L96.26,594.49L113.35,617.5L112.34,599.95L136.3,591.52L125.55,585.51L124.16,568.42L130.47,562.76L117.92,552.03L135.74,546.23L152.96,518.98L171.05,517.01L207.49,474.16zM101.14,539.14L93.5,528.61L107.61,530.65L101.14,539.14z" transform="translate(-1,-35)" stroke-width="4.349305470784505" fill="#32a9de" fill-opacity="1" stroke="#505050" stroke-opacity="0.22" class="amcharts-map-area amcharts-map-area-NE-6" role="menuitem" aria-label="Tillabéri  " countryId="NE-6"></path>
                    <path cs="100,100" d="M329.74,433.86L327.59,393.74L313.84,387.3L301.56,358.11L230.96,300.1L238.29,265.63L206.31,263.87L203.97,381.98L188.3,418.52L207.49,474.16L226.29,522.87L271.55,514.69L310.06,525.75L322.06,505.39L329.74,433.86z" transform="translate(-1,-35)" stroke-width="4.349305470784505" fill="#32a9de" fill-opacity="1" stroke="#505050" stroke-opacity="0.22" class="amcharts-map-area amcharts-map-area-NE-5" role="menuitem" aria-label="Tahoua  " countryId="NE-5" cursor="pointer"></path>
                    <path cs="100,100" d="M101.14,539.14L107.61,530.65L93.5,528.61L101.14,539.14z" transform="translate(-1,-35)" stroke-width="4.349305470784505" fill="#32a9de" fill-opacity="1" stroke="#505050" stroke-opacity="0.22" class="amcharts-map-area amcharts-map-area-NE-8" role="menuitem" aria-label="Niamey  " countryId="NE-8"></path>
                    <path cs="100,100" d="M597.23,0L370.61,144.31L285.32,220.88L206.22,237.34L206.31,263.87L238.29,265.63L230.96,300.1L301.56,358.11L313.84,387.3L327.59,393.74L329.74,433.86L362.61,438.78L368.69,424.98L415.71,425.52L463.46,403.86L598.67,324.71L649.32,298.23L779.02,298.21L787.53,196.53L799.36,173.25L779.15,150.83L781.13,140.09L759.67,110.8L749.33,28.68L710.75,49.47L673.68,18.58L597.23,0z" transform="translate(-1,-35)" stroke-width="4.349305470784505" fill="#32a9de" fill-opacity="1" stroke="#505050" stroke-opacity="0.22" class="amcharts-map-area amcharts-map-area-NE-1" role="menuitem" aria-label="Agadez  " countryId="NE-1" cursor="pointer"></path>
                    <path cs="100,100" d="M779.02,298.21L649.32,298.23L598.67,324.71L597.87,485.55L559.47,499.49L538.96,518.52L530.5,541.25L570.51,541.51L622.68,557.09L641.35,535.03L679.99,523.86L672.02,485.58L682.55,479.86L718.47,417.01L773.86,356.74L779.02,298.21z" transform="translate(-1,-35)" stroke-width="4.349305470784505" fill="#32a9de" fill-opacity="1" stroke="#505050" stroke-opacity="0.22" class="amcharts-map-area amcharts-map-area-NE-2" role="menuitem" aria-label="Diffa  " countryId="NE-2" cursor="pointer"></path>
                </g>
                <g>
                    <g class="amcharts-map-image-container" role="menuitem" aria-label=" " transform="translate(927.6147713929787,-99.6756845229829) scale(4)" cursor="pointer">
                        <circle r="0.5" cx="0" cy="0" fill="#010705" stroke="#000000" fill-opacity="0.8" stroke-width="0.01" stroke-opacity="1" transform="translate(0,0) scale(1)" class="amcharts-map-image"></circle>
                        <text y="8" fill="#010705" font-family="Verdana" font-size="15px" opacity="1" text-anchor="middle" class="amcharts-map-image-label" transform="translate(174.21875,-15)" fill-opacity="0.8">
                            <tspan y="8" x="0">Président de la République Mahamadou Issoufou</tspan>
                        </text>
                    </g>
                    <g class="amcharts-map-image-container" role="menuitem" aria-label=" " transform="translate(935.6160488920556,24.32572297133141) scale(4)" cursor="pointer">
                        <circle r="0.5" cx="0" cy="0" fill="#010705" stroke="#000000" fill-opacity="0.8" stroke-width="0.01" stroke-opacity="1" transform="translate(0,0) scale(1)" class="amcharts-map-image"></circle>
                        <text y="8" fill="#010705" font-family="Verdana" font-size="15px" opacity="1" text-anchor="middle" class="amcharts-map-image-label" transform="translate(92.90625,-15)" fill-opacity="0.8">
                            <tspan y="8" x="0">Langues officielles Français</tspan>
                        </text>
                    </g>
                    <g class="amcharts-map-image-container" role="menuitem" aria-label=" " transform="translate(919.6134938939017,-223.67709201729724) scale(4)" cursor="pointer">
                        <circle r="0.5" cx="0" cy="0" fill="#010705" stroke="#000000" fill-opacity="0.8" stroke-width="0.01" stroke-opacity="1" transform="translate(0,0) scale(1)" class="amcharts-map-image"></circle>
                        <text y="8" fill="#010705" font-family="Verdana" font-size="15px" opacity="1" text-anchor="middle" class="amcharts-map-image-label" transform="translate(33.9921875,-15)" fill-opacity="0.8">
                            <tspan y="8" x="0">Pays: Niger</tspan>
                        </text>
                    </g>
                    <g class="amcharts-map-image-container" role="menuitem" aria-label=" " transform="translate(939.6166876415939,148.32713046564572) scale(4)" cursor="pointer">
                        <circle r="0.5" cx="0" cy="0" fill="#010705" stroke="#000000" fill-opacity="0.8" stroke-width="0.01" stroke-opacity="1" transform="translate(0,0) scale(1)" class="amcharts-map-image"></circle>
                        <text y="8" fill="#010705" font-family="Verdana" font-size="15px" opacity="1" text-anchor="middle" class="amcharts-map-image-label" transform="translate(52.03125,-15)" fill-opacity="0.8">
                            <tspan y="8" x="0">Capitale Niamey</tspan>
                        </text>
                    </g>
                    <g class="amcharts-map-image-container" role="menuitem" aria-label=" " transform="translate(943.6081295204438,296.3507641985679) scale(4)" cursor="pointer">
                        <circle r="0.5" cx="0" cy="0" fill="#010705" stroke="#000000" fill-opacity="0.8" stroke-width="0.01" stroke-opacity="1" transform="translate(0,0) scale(1)" class="amcharts-map-image"></circle>
                        <text y="8" fill="#010705" font-family="Verdana" font-size="15px" opacity="1" text-anchor="middle" class="amcharts-map-image-label" transform="translate(152.375,-15)" fill-opacity="0.8">
                            <tspan y="8" x="0">Population totale (20201) 22 772 361 hab.</tspan>
                        </text>
                    </g>
                    <g class="amcharts-map-image-container" role="menuitem" aria-label=" " transform="translate(951.6186038902093,472.3328848248161) scale(4)">
                        <circle r="0.5" cx="0" cy="0" fill="#010705" stroke="#000000" fill-opacity="0.8" stroke-width="0.01" stroke-opacity="1" transform="translate(0,0) scale(1)" class="amcharts-map-image"></circle>
                        <text y="8" fill="#010705" font-family="Verdana" font-size="15px" opacity="1" text-anchor="middle" class="amcharts-map-image-label" transform="translate(123.8125,-15)" fill-opacity="0.8">
                            <tspan y="8" x="0">Monnaie Franc CFA (UEMOA) (XOF​)</tspan>
                        </text>
                    </g>
                    <g class="amcharts-map-image-container" role="menuitem" aria-label=" " transform="translate(-996.3889704022855,964.3470729232234) scale(4)" cursor="pointer">
                        <circle r="0.5" cx="0" cy="0" fill="#010705" stroke="#000000" fill-opacity="0.8" stroke-width="0.01" stroke-opacity="1" transform="translate(0,0) scale(1)" class="amcharts-map-image"></circle>
                        <text y="8" fill="#010705" font-family="Verdana" font-size="15px" opacity="1" text-anchor="middle" class="amcharts-map-image-label" transform="translate(292.875,-15)" fill-opacity="0.8">
                            <tspan y="8" x="0">Copyright © CEDEAO 2020 by Abdoulahi MBENGUE, Seyni Kaire, Khadim CISSE</tspan>
                        </text>
                    </g>
                </g>
            </g>
        </g>
        <g transform="translate(20,20)">
            <path class="app-brand-logo-white" fill="#FFFFFF" d="M5.033,31.105h0.941l3.383,8.306H8.514l-0.819-2.016H3.176l-0.868,2.016H1.465L5.033,31.105zM3.408,36.749h4.055l-1.967-4.801L3.408,36.749z"></path>
            <path class="app-brand-logo-white" fill="#FFFFFF" d="M19.117,32.436l-3.493,4.226h-0.196l-3.493-4.226v6.975h-0.83v-8.306h0.757l3.665,4.434l3.651-4.434h0.77v8.306h-0.831V32.436z"></path>
            <path class="app-brand-logo-white" fill="#FFFFFF" d="M26.997,37.64c1.026,0,1.747-0.403,2.284-0.819l0.941,1.478c-0.855,0.77-1.955,1.234-3.286,1.234c-2.504,0-4.385-1.845-4.385-4.276c0-2.43,1.881-4.275,4.385-4.275c1.331,0,2.431,0.464,3.286,1.234l-0.941,1.478c-0.537-0.415-1.258-0.818-2.284-0.818c-1.404,0-2.332,1.063-2.332,2.382C24.664,36.578,25.593,37.64,26.997,37.64z"></path>
            <path class="app-brand-logo-white" fill="#FFFFFF" d="M38.382,36.101h-3.92v3.31h-2.053v-8.306h2.053v3.212h3.92v-3.212h2.052v8.306h-2.052V36.101z"></path>
            <path class="app-brand-logo-white" fill="#FFFFFF" d="M45.455,31.105h2.418l3.139,8.306h-2.076l-0.562-1.527h-3.481l-0.574,1.527h-2.077L45.455,31.105zM45.406,36.382h2.468l-1.209-3.249L45.406,36.382z"></path>
            <path class="app-brand-logo-white" fill="#FFFFFF" d="M52.858,31.105h3.945c1.93,0,3.2,0.88,3.2,2.748c0,1.234-0.818,2.162-1.966,2.492l2.418,2.675v0.391h-2.187l-2.528-2.944h-0.83v2.944h-2.052V31.105z M54.91,32.888v2.052h1.857c0.672,0,1.111-0.415,1.111-1.026c0-0.635-0.44-1.026-1.111-1.026H54.91z"></path>
            <path class="app-brand-logo-white" fill="#FFFFFF" d="M66.295,32.901v6.511h-2.052v-6.511H61.69v-1.795h7.084v1.795H66.295z"></path>
            <path class="app-brand-logo-white" fill="#FFFFFF" d="M70.889,36.944c0.635,0.416,1.588,0.831,2.626,0.831c0.818,0,1.331-0.269,1.331-0.795c0-0.366-0.269-0.586-0.94-0.757l-1.355-0.367c-1.43-0.378-2.114-1.136-2.114-2.308c0-1.418,1.087-2.553,3.322-2.553c1.185,0,2.345,0.33,2.993,0.659l-0.574,1.772c-0.647-0.367-1.649-0.672-2.504-0.672c-0.806,0-1.149,0.257-1.149,0.66c0,0.366,0.245,0.513,0.757,0.659l1.478,0.428c1.526,0.439,2.186,1.184,2.186,2.333c0,1.6-1.405,2.699-3.482,2.699c-1.221,0-2.504-0.416-3.053-0.721L70.889,36.944z"></path>
            <path class="app-brand-logo-white" fill="#FFFFFF" d="M68.607,20.635c-11.025-0.002-20.827-0.004-20.827-0.004l0,0h-0.001c-6.516,0-9.003-4.935-11.637-10.16C33.664,5.553,31.101,0.466,24.983,0.466c-6.116,0-8.68,5.086-11.159,10.005c-2.633,5.225-5.121,10.16-11.637,10.16l-0.1,0.021c-0.858,0.001-1.554,0.699-1.553,1.558c0.001,0.858,0.697,1.553,1.556,1.553h0.001c0.096,0,0.082-0.02,0.096-0.02c8.433,0,11.75-6.583,14.416-11.871c2.243-4.45,4.181-8.295,8.38-8.295c4.2,0,6.138,3.843,8.381,8.295c2.665,5.288,5.982,11.869,14.414,11.871l0,0c0,0,15.624,0.005,29.88,0.005v-0.005C74.371,23.744,71.319,22.668,68.607,20.635z"></path>
            <path fill="none" stroke="#5DC7CE" stroke-width="4" stroke-linejoin="round" stroke-miterlimit="10" d="M-3.898,22.214"></path>
            <path fill="#1FA3DD" d="M78,20.632h-0.34c-7.295,0-11.593-6.37-13.915-11.714c-0.634-1.459-2.431-4.912-5.418-5.437c-1.08-0.189-2.724-0.046-4.403,1.725c-0.66,0.697-1.174,1.559-1.67,2.392c-1.073,1.801-1.695,2.642-2.672,2.578c-1.162-0.075-1.823-1.083-2.803-2.72c-0.579-0.966-1.177-1.965-2.022-2.743c-0.868-0.798-2.114-1.199-3.416-1.09c-1.345,0.109-2.55,0.722-3.305,1.685c-0.927,1.181-1.485,2.496-2.025,3.77c-0.089,0.21-0.177,0.409-0.265,0.612c0.134,0.261,0.266,0.523,0.397,0.785c0.451,0.894,0.898,1.778,1.361,2.632c0.114-0.201,0.24-0.398,0.349-0.6c0.393-0.731,0.713-1.484,1.022-2.212c0.482-1.136,0.937-2.209,1.609-3.065c0.211-0.269,0.646-0.466,1.108-0.504c0.425-0.037,0.833,0.071,1.058,0.278c0.514,0.473,0.973,1.24,1.459,2.052c1.079,1.801,2.421,4.042,5.271,4.227c3.01,0.187,4.469-2.281,5.547-4.09c0.428-0.719,0.833-1.397,1.256-1.844c0.88-0.928,1.427-0.833,1.605-0.801c0.979,0.172,2.255,1.658,3.104,3.612c3.805,8.761,9.761,13.586,16.769,13.586H78c0.859,0,1.556-0.697,1.556-1.556C79.555,21.328,78.859,20.632,78,20.632z M30.888,16.92c-2.452,2.683-5.12,3.728-9.512,3.728H10.661c-2.101,1.846-4.801,3.095-8.474,3.095H2.023c0.055,0.006,0.108,0.017,0.122,0.02h19.187c5.283-0.003,8.814-1.421,11.852-4.743c0.879-0.962,1.684-1.957,2.426-2.974c-0.612-1.01-1.162-2.044-1.679-3.054C33.05,14.343,32.039,15.661,30.888,16.92z"></path>
        </g>
    </svg>