<?xml version="1.0" encoding="UTF-8" standalone="no" ?>
    <!DOCTYPE svg PUBLIC "-//W3C//DTD SVG 1.1//EN" "http://www.w3.org/Graphics/SVG/1.1/DTD/svg11.dtd">
    <svg version="1.1" xmlns="http://www.w3.org/2000/svg" xmlns:xlink="http://www.w3.org/1999/xlink" width="1366" height="576" xml:space="preserve">
        <desc>JavaScript chart by amCharts 3.21.15</desc>
        <desc>This map was created using Pixel Map Generator by amCharts and is licensed under the Creative Commons Attribution 4.0 International License. You may use this map the way you see fit as long as proper attribution to the name of amCharts is given in the form of link to http://pixelmap.amcharts.com/ To view a copy of this license, visit http://creativecommons.org/licenses/by/4.0/ If you would like to use this map without any attribution, you can acquire a commercial license for the JavaScript Maps - a tool that was used to produce this map. To do so, visit amCharts Online Store: http://www.amcharts.com/online-store/</desc>
        <g>
            <path cs="100,100" d="M0.5,0.5 L1365.5,0.5 L1365.5,575.5 L0.5,575.5 Z" fill="#2d8651" stroke="#000000" fill-opacity="1" stroke-width="1" stroke-opacity="1" class="amcharts-bg"></path>
        </g>
        <g>
            <g transform="translate(627.9163193382601,148.01131685056893) scale(0.5)">
                <g transform="translate(0,0) scale(0.27554928922107935)">
                    <path cs="100,100" d="M554.83,2090.37L799.81,2017.4L711.04,1851.83L710.29,1758.86L577.62,1833.82L528.21,1798.32L447.41,1797.43L430.53,1865.88L360.99,1911.41L383.04,1958.73L471.99,1997.86L554.83,2090.37z" transform="translate(0,-29)" stroke-width="7.258229573567709" fill="#f1e30e" fill-opacity="1" stroke="#2d8651" stroke-opacity="1" class="amcharts-map-area amcharts-map-area-TG-M" role="menuitem" aria-label="Maritime  " countryId="TG-M"></path>
                    <path cs="100,100" d="M0.19,0L75.01,30.28L32.19,209.58L231.12,355.75L230.29,459L295.84,525.26L347.04,524.52L370.79,403.01L477.54,383.57L380.54,314.48L388.98,184.71L438.31,59.48L268.48,84.35L268.06,55.1L0.19,0z" transform="translate(0,-29)" stroke-width="7.258229573567709" fill="#f1e30e" fill-opacity="1" stroke="#2d8651" stroke-opacity="1" class="amcharts-map-area amcharts-map-area-TG-S" role="menuitem" aria-label="Savanes  " countryId="TG-S"></path>
                    <path cs="100,100" d="M726.59,1152.51L575.78,1150.63L587.31,1237L564.9,1313.63L315.69,1349.15L319.64,1429.38L271.75,1510.17L332.83,1593.92L313.78,1705.9L271.33,1729.91L360.99,1911.41L430.53,1865.88L447.41,1797.43L528.21,1798.32L577.62,1833.82L710.29,1758.86L697.04,1722.14L735.51,1720.13L726.59,1152.51z" transform="translate(0,-29)" stroke-width="7.258229573567709" fill="#f1e30e" fill-opacity="1" stroke="#2d8651" stroke-opacity="1" class="amcharts-map-area amcharts-map-area-TG-P" role="menuitem" aria-label="Plateaux  " countryId="TG-P" cursor="pointer"></path>
                    <path cs="100,100" d="M651.17,768.41L611.36,664.42L614.59,475.29L477.54,383.57L370.79,403.01L347.04,524.52L295.84,525.26L230.29,459L211.9,461.81L210.8,614.12L175.46,616.61L223.38,644.81L162.83,650.5L192.26,678.92L161.44,710.17L237.3,685.25L286.42,723.17L245.35,878.46L266.83,958.47L368.43,869.72L458.92,880.84L479.05,804.39L651.17,768.41z" transform="translate(0,-29)" stroke-width="7.258229573567709" fill="#f1e30e" fill-opacity="1" stroke="#2d8651" stroke-opacity="1" class="amcharts-map-area amcharts-map-area-TG-K" role="menuitem" aria-label="Kara  " countryId="TG-K" cursor="pointer"></path>
                    <path cs="100,100" d="M726.59,1152.51L723.25,858L651.17,768.41L479.05,804.39L458.92,880.84L368.43,869.72L266.83,958.47L221.3,979.74L222.02,1004.24L321.29,1102.19L360.86,1181.34L303.86,1220.33L315.69,1349.15L564.9,1313.63L587.31,1237L575.78,1150.63L726.59,1152.51z" transform="translate(0,-29)" stroke-width="7.258229573567709" fill="#f1e30e" fill-opacity="1" stroke="#2d8651" stroke-opacity="1" class="amcharts-map-area amcharts-map-area-TG-C" role="menuitem" aria-label="Centre  " countryId="TG-C" cursor="pointer"></path>
                </g>
                <g>
                    <g class="amcharts-map-image-container" role="menuitem" aria-label=" " transform="translate(378.11975664073395,105.96247916996607) scale(2)" cursor="pointer">
                        <circle r="0.5" cx="0" cy="0" fill="#f1f1f1" stroke="#000000" fill-opacity="0.8" stroke-width="0.01" stroke-opacity="1" transform="translate(0,0) scale(1)" class="amcharts-map-image"></circle>
                        <text y="8" fill="#f1f1f1" font-family="Verdana" font-size="15px" opacity="1" text-anchor="middle" class="amcharts-map-image-label" transform="translate(44.125,-15)" fill-opacity="0.8">
                            <tspan y="8" x="0">Capitale Lomé</tspan>
                        </text>
                    </g>
                    <g class="amcharts-map-image-container" role="menuitem" aria-label=" " transform="translate(402.1173442389977,251.95675907797053) scale(2)" cursor="pointer">
                        <circle r="0.5" cx="0" cy="0" fill="#f1f1f1" stroke="#000000" fill-opacity="0.8" stroke-width="0.01" stroke-opacity="1" transform="translate(0,0) scale(1)" class="amcharts-map-image"></circle>
                        <text y="8" fill="#f1f1f1" font-family="Verdana" font-size="15px" opacity="1" text-anchor="middle" class="amcharts-map-image-label" transform="translate(142.84375,-15)" fill-opacity="0.8">
                            <tspan y="8" x="0">Population totale (2020) 8 608 444 hab.</tspan>
                        </text>
                    </g>
                    <g class="amcharts-map-image-container" role="menuitem" aria-label=" " transform="translate(362.12136490855806,-32.03536036484269) scale(2)" cursor="pointer">
                        <circle r="0.5" cx="0" cy="0" fill="#f1f1f1" stroke="#000000" fill-opacity="0.8" stroke-width="0.01" stroke-opacity="1" transform="translate(0,0) scale(1)" class="amcharts-map-image"></circle>
                        <text y="8" fill="#f1f1f1" font-family="Verdana" font-size="15px" opacity="1" text-anchor="middle" class="amcharts-map-image-label" transform="translate(160.5625,-15)" fill-opacity="0.8">
                            <tspan y="8" x="0">Président de la République Faure Gnassingbé</tspan>
                        </text>
                    </g>
                    <g class="amcharts-map-image-container" role="menuitem" aria-label=" " transform="translate(404.12609855741937,179.96399628317914) scale(2)" cursor="pointer">
                        <circle r="0.5" cx="0" cy="0" fill="#f1f1f1" stroke="#000000" fill-opacity="0.8" stroke-width="0.01" stroke-opacity="1" transform="translate(0,0) scale(1)" class="amcharts-map-image"></circle>
                        <text y="8" fill="#f1f1f1" font-family="Verdana" font-size="15px" opacity="1" text-anchor="middle" class="amcharts-map-image-label" transform="translate(100.234375,-15)" fill-opacity="0.8">
                            <tspan y="8" x="0">Superficie totale 56 785 km2</tspan>
                        </text>
                    </g>
                    <g class="amcharts-map-image-container" role="menuitem" aria-label=" " transform="translate(314.1124122475694,445.94896967539484) scale(2)" cursor="pointer">
                        <circle r="0.5" cx="0" cy="0" fill="#f1f1f1" stroke="#000000" fill-opacity="0.8" stroke-width="0.01" stroke-opacity="1" transform="translate(0,0) scale(1)" class="amcharts-map-image"></circle>
                        <text y="8" fill="#f1f1f1" font-family="Verdana" font-size="15px" opacity="1" text-anchor="middle" class="amcharts-map-image-label" transform="translate(153.25,-15)" fill-opacity="0.8">
                            <tspan y="8" x="0">PIB nominal (2018) 5,3 milliards de dollars</tspan>
                        </text>
                    </g>
                    <g class="amcharts-map-image-container" role="menuitem" aria-label=" " transform="translate(-557.8770909569972,731.9608654081985) scale(2)" cursor="pointer">
                        <circle r="0.5" cx="0" cy="0" fill="#f1f1f1" stroke="#000000" fill-opacity="0.8" stroke-width="0.01" stroke-opacity="1" transform="translate(0,0) scale(1)" class="amcharts-map-image"></circle>
                        <text y="8" fill="#f1f1f1" font-family="Verdana" font-size="15px" opacity="1" text-anchor="middle" class="amcharts-map-image-label" transform="translate(292.875,-15)" fill-opacity="0.8">
                            <tspan y="8" x="0">Copyright © CEDEAO 2020 by Abdoulahi MBENGUE, Seyni Kaire, Khadim CISSE</tspan>
                        </text>
                    </g>
                    <g class="amcharts-map-image-container" role="menuitem" aria-label=" " transform="translate(354.11114707090127,549.9467824132146) scale(2)" cursor="pointer">
                        <circle r="0.5" cx="0" cy="0" fill="#f1f1f1" stroke="#000000" fill-opacity="0.8" stroke-width="0.01" stroke-opacity="1" transform="translate(0,0) scale(1)" class="amcharts-map-image"></circle>
                        <text y="8" fill="#f1f1f1" font-family="Verdana" font-size="15px" opacity="1" text-anchor="middle" class="amcharts-map-image-label" transform="translate(123.8125,-15)" fill-opacity="0.8">
                            <tspan y="8" x="0">Monnaie Franc CFA (UEMOA) (XOF​)</tspan>
                        </text>
                    </g>
                    <g class="amcharts-map-image-container" role="menuitem" aria-label=" " transform="translate(372.1182931214988,29.96598520279238) scale(2)" cursor="pointer">
                        <circle r="0.5" cx="0" cy="0" fill="#f1f1f1" stroke="#000000" fill-opacity="0.8" stroke-width="0.01" stroke-opacity="1" transform="translate(0,0) scale(1)" class="amcharts-map-image"></circle>
                        <text y="8" fill="#f1f1f1" font-family="Verdana" font-size="15px" opacity="1" text-anchor="middle" class="amcharts-map-image-label" transform="translate(92.90625,-15)" fill-opacity="0.8">
                            <tspan y="8" x="0">Langues officielles Français</tspan>
                        </text>
                    </g>
                    <g class="amcharts-map-image-container" role="menuitem" aria-label=" " transform="translate(338.12377731029426,-94.03670593247774) scale(2)" cursor="pointer">
                        <circle r="0.5" cx="0" cy="0" fill="#f1f1f1" stroke="#000000" fill-opacity="0.8" stroke-width="0.01" stroke-opacity="1" transform="translate(0,0) scale(1)" class="amcharts-map-image"></circle>
                        <text y="8" fill="#f1f1f1" font-family="Verdana" font-size="15px" opacity="1" text-anchor="middle" class="amcharts-map-image-label" transform="translate(27.875,-15)" fill-opacity="0.8">
                            <tspan y="8" x="0">Pays Togo</tspan>
                        </text>
                    </g>
                    <g class="amcharts-map-image-container" role="menuitem" aria-label=" " transform="translate(364.1190972554109,343.9488892844279) scale(2)" cursor="pointer">
                        <circle r="0.5" cx="0" cy="0" fill="#f1f1f1" stroke="#000000" fill-opacity="0.8" stroke-width="0.01" stroke-opacity="1" transform="translate(0,0) scale(1)" class="amcharts-map-image"></circle>
                        <text y="8" fill="#f1f1f1" font-family="Verdana" font-size="15px" opacity="1" text-anchor="middle" class="amcharts-map-image-label" transform="translate(74.953125,-15)" fill-opacity="0.8">
                            <tspan y="8" x="0">Densité 152 hab./km2</tspan>
                        </text>
                    </g>
                </g>
            </g>
        </g>
        <g transform="translate(20,20)">
            <path class="app-brand-logo-white" fill="#000000" d="M5.033,31.105h0.941l3.383,8.306H8.514l-0.819-2.016H3.176l-0.868,2.016H1.465L5.033,31.105zM3.408,36.749h4.055l-1.967-4.801L3.408,36.749z"></path>
            <path class="app-brand-logo-white" fill="#000000" d="M19.117,32.436l-3.493,4.226h-0.196l-3.493-4.226v6.975h-0.83v-8.306h0.757l3.665,4.434l3.651-4.434h0.77v8.306h-0.831V32.436z"></path>
            <path class="app-brand-logo-white" fill="#000000" d="M26.997,37.64c1.026,0,1.747-0.403,2.284-0.819l0.941,1.478c-0.855,0.77-1.955,1.234-3.286,1.234c-2.504,0-4.385-1.845-4.385-4.276c0-2.43,1.881-4.275,4.385-4.275c1.331,0,2.431,0.464,3.286,1.234l-0.941,1.478c-0.537-0.415-1.258-0.818-2.284-0.818c-1.404,0-2.332,1.063-2.332,2.382C24.664,36.578,25.593,37.64,26.997,37.64z"></path>
            <path class="app-brand-logo-white" fill="#000000" d="M38.382,36.101h-3.92v3.31h-2.053v-8.306h2.053v3.212h3.92v-3.212h2.052v8.306h-2.052V36.101z"></path>
            <path class="app-brand-logo-white" fill="#000000" d="M45.455,31.105h2.418l3.139,8.306h-2.076l-0.562-1.527h-3.481l-0.574,1.527h-2.077L45.455,31.105zM45.406,36.382h2.468l-1.209-3.249L45.406,36.382z"></path>
            <path class="app-brand-logo-white" fill="#000000" d="M52.858,31.105h3.945c1.93,0,3.2,0.88,3.2,2.748c0,1.234-0.818,2.162-1.966,2.492l2.418,2.675v0.391h-2.187l-2.528-2.944h-0.83v2.944h-2.052V31.105z M54.91,32.888v2.052h1.857c0.672,0,1.111-0.415,1.111-1.026c0-0.635-0.44-1.026-1.111-1.026H54.91z"></path>
            <path class="app-brand-logo-white" fill="#000000" d="M66.295,32.901v6.511h-2.052v-6.511H61.69v-1.795h7.084v1.795H66.295z"></path>
            <path class="app-brand-logo-white" fill="#000000" d="M70.889,36.944c0.635,0.416,1.588,0.831,2.626,0.831c0.818,0,1.331-0.269,1.331-0.795c0-0.366-0.269-0.586-0.94-0.757l-1.355-0.367c-1.43-0.378-2.114-1.136-2.114-2.308c0-1.418,1.087-2.553,3.322-2.553c1.185,0,2.345,0.33,2.993,0.659l-0.574,1.772c-0.647-0.367-1.649-0.672-2.504-0.672c-0.806,0-1.149,0.257-1.149,0.66c0,0.366,0.245,0.513,0.757,0.659l1.478,0.428c1.526,0.439,2.186,1.184,2.186,2.333c0,1.6-1.405,2.699-3.482,2.699c-1.221,0-2.504-0.416-3.053-0.721L70.889,36.944z"></path>
            <path class="app-brand-logo-white" fill="#000000" d="M68.607,20.635c-11.025-0.002-20.827-0.004-20.827-0.004l0,0h-0.001c-6.516,0-9.003-4.935-11.637-10.16C33.664,5.553,31.101,0.466,24.983,0.466c-6.116,0-8.68,5.086-11.159,10.005c-2.633,5.225-5.121,10.16-11.637,10.16l-0.1,0.021c-0.858,0.001-1.554,0.699-1.553,1.558c0.001,0.858,0.697,1.553,1.556,1.553h0.001c0.096,0,0.082-0.02,0.096-0.02c8.433,0,11.75-6.583,14.416-11.871c2.243-4.45,4.181-8.295,8.38-8.295c4.2,0,6.138,3.843,8.381,8.295c2.665,5.288,5.982,11.869,14.414,11.871l0,0c0,0,15.624,0.005,29.88,0.005v-0.005C74.371,23.744,71.319,22.668,68.607,20.635z"></path>
            <path fill="none" stroke="#5DC7CE" stroke-width="4" stroke-linejoin="round" stroke-miterlimit="10" d="M-3.898,22.214"></path>
            <path fill="#1FA3DD" d="M78,20.632h-0.34c-7.295,0-11.593-6.37-13.915-11.714c-0.634-1.459-2.431-4.912-5.418-5.437c-1.08-0.189-2.724-0.046-4.403,1.725c-0.66,0.697-1.174,1.559-1.67,2.392c-1.073,1.801-1.695,2.642-2.672,2.578c-1.162-0.075-1.823-1.083-2.803-2.72c-0.579-0.966-1.177-1.965-2.022-2.743c-0.868-0.798-2.114-1.199-3.416-1.09c-1.345,0.109-2.55,0.722-3.305,1.685c-0.927,1.181-1.485,2.496-2.025,3.77c-0.089,0.21-0.177,0.409-0.265,0.612c0.134,0.261,0.266,0.523,0.397,0.785c0.451,0.894,0.898,1.778,1.361,2.632c0.114-0.201,0.24-0.398,0.349-0.6c0.393-0.731,0.713-1.484,1.022-2.212c0.482-1.136,0.937-2.209,1.609-3.065c0.211-0.269,0.646-0.466,1.108-0.504c0.425-0.037,0.833,0.071,1.058,0.278c0.514,0.473,0.973,1.24,1.459,2.052c1.079,1.801,2.421,4.042,5.271,4.227c3.01,0.187,4.469-2.281,5.547-4.09c0.428-0.719,0.833-1.397,1.256-1.844c0.88-0.928,1.427-0.833,1.605-0.801c0.979,0.172,2.255,1.658,3.104,3.612c3.805,8.761,9.761,13.586,16.769,13.586H78c0.859,0,1.556-0.697,1.556-1.556C79.555,21.328,78.859,20.632,78,20.632z M30.888,16.92c-2.452,2.683-5.12,3.728-9.512,3.728H10.661c-2.101,1.846-4.801,3.095-8.474,3.095H2.023c0.055,0.006,0.108,0.017,0.122,0.02h19.187c5.283-0.003,8.814-1.421,11.852-4.743c0.879-0.962,1.684-1.957,2.426-2.974c-0.612-1.01-1.162-2.044-1.679-3.054C33.05,14.343,32.039,15.661,30.888,16.92z"></path>
        </g>
    </svg>